<svg width="45" height="44" viewBox="0 0 45 44" fill="none" xmlns="http://www.w3.org/2000/svg">
<rect x="0.5" width="44" height="44" rx="22" fill="white"/>
<g clip-path="url(#clip0_37_8146)">
<path d="M27.9481 22.6254C27.9783 25.652 30.8009 26.6592 30.8321 26.672C30.8083 26.743 30.3811 28.1074 29.3451 29.5166C28.4494 30.735 27.5199 31.9488 26.0556 31.974C24.6168 31.9986 24.1542 31.1799 22.5092 31.1799C20.8647 31.1799 20.3507 31.9489 18.9887 31.9987C17.5753 32.0485 16.4989 30.6812 15.5959 29.4673C13.7506 26.9842 12.3404 22.4508 14.234 19.3906C15.1746 17.8709 16.8557 16.9086 18.6803 16.8839C20.0682 16.8593 21.3782 17.753 22.2267 17.753C23.0747 17.753 24.6666 16.6782 26.3402 16.8361C27.0409 16.8632 29.0076 17.0995 30.2704 18.8199C30.1686 18.8786 27.9237 20.095 27.9481 22.6254ZM25.2441 15.1933C25.9944 14.3479 26.4995 13.171 26.3617 12C25.2801 12.0405 23.9721 12.6709 23.1963 13.5158C22.501 14.264 21.8921 15.4616 22.0564 16.6095C23.262 16.6963 24.4936 16.0392 25.2441 15.1933Z" fill="#32343D"/>
</g>
<defs>
<clipPath id="clip0_37_8146">
<rect width="17.5" height="20" fill="white" transform="translate(13.3333 12)"/>
</clipPath>
</defs>
</svg>
