<svg width="142" height="178" viewBox="0 0 142 178" fill="none" xmlns="http://www.w3.org/2000/svg">
<path d="M84.5384 170.79C81.7547 170.442 77.5914 170.596 74.683 170.599C71.8022 170.602 67.5773 170.462 64.8307 170.792C61.8256 170.31 51.6258 171.628 47.7821 172.121C45.8909 172.364 43.6954 172.259 43.4321 174.167C50.9374 177.074 64.5493 177.046 72.4422 177.037C76.8179 177.031 96.1214 176.69 100.656 174.423C101.119 174.191 101.013 174.245 101.276 173.975C99.8693 171.16 85.849 170.581 84.5384 170.79Z" fill="#505A6A"/>
<path d="M56.8728 15.5247C57.2292 18.5676 58.942 20.98 60.575 22.3704C63.7489 25.073 64.548 24.7175 67.1601 26.1629L67.2095 33.1129L66.4753 33.2342C48.0564 35.7663 21.8647 24.6405 14.5767 54.8923C-6.66859 60.6408 0.701112 79.0223 10.1701 82.2479C14.0044 83.554 14.3676 81.5925 15.0054 86.8594C15.137 87.9471 15.509 88.226 15.9642 89.1079C19.139 95.2623 20.6728 98.8422 28.0486 102.373C30.2954 103.448 32.7127 104.202 35.2482 104.736L37.9626 105.368C37.5587 106.18 36.1991 107.299 34.8155 109.132C33.7937 110.485 32.8527 111.799 31.855 113.197C31.284 113.997 31.0555 114.371 30.5768 115.318C30.1489 116.164 29.4918 116.673 29.1683 117.322C28.6266 118.408 26.7722 127.688 26.3284 128.2C25.902 128.691 23.8825 129.124 22.1338 131.081C21.0645 132.278 20.2544 134.037 20.2694 136.104C20.2765 137.121 20.3656 138.44 20.4368 139.466C20.5073 140.475 21.188 141.027 22.0998 141.411C22.774 140.671 25.7369 136.399 26.0544 135.219C28.5075 135.676 30.215 137.398 32.1466 138.187C31.466 141.206 28.9687 142.428 28.3772 145.265C30.7753 145.322 32.3277 145.036 34.0621 144.076C35.2447 143.422 36.5508 141.941 37.1572 140.535C38.6839 136.994 37.261 136.463 40.2928 133.882L41.5974 132.763C42.141 132.317 41.6786 132.571 42.2032 132.367C43.6763 134.359 45.3873 141.004 49.3148 145.654C50.2328 146.74 49.9882 147.084 50.5275 147.83C50.7667 148.161 51.8986 148.741 52.5 149.298C54.9222 151.541 56.5794 153.435 60.3319 155.206C72.153 160.783 83.1029 157.013 90.7983 148.927C98.2529 141.095 98.8134 134.51 100.865 131.615C106.006 133.814 105.724 138.22 106.423 140.038C107.845 143.739 111.613 145.232 115.544 145.308C114.98 142.549 112.249 141.013 111.953 138.469C113.217 137.386 115.725 135.666 117.741 135.202C118.265 135.81 119.186 137.613 119.675 138.39C120.341 139.45 121.271 140.509 121.809 141.437L123.264 140.783C123.631 136.41 124.26 132.955 121.223 130.407C119.399 128.876 117.671 128.805 117.341 127.636C115.931 122.624 116.051 118.706 111.999 112.836C110.979 111.358 110.193 110.415 109.126 109.086C108.623 108.459 108.059 107.831 107.546 107.242C106.922 106.528 106.283 106.286 105.99 105.384C111.351 103.546 114.468 103.223 118.751 100.228C127.271 94.2695 128.055 84.1602 128.471 83.5253C128.902 82.8685 130.748 82.5086 131.568 82.1558C136.964 79.8364 140.953 76.9288 141.17 69.5525C141.267 60.0176 136.151 58.2403 129.579 55.2217C127.773 54.3925 127.93 52.9174 127.41 50.7921C126.947 48.8933 126.452 47.8268 125.597 46.2302C124.129 43.4878 121.881 40.8776 119.801 39.1692C114.206 34.5743 108.739 33.5377 99.4227 33.249C94.9648 33.1106 90.5036 33.1442 86.0442 33.189C81.8428 33.2311 76.9996 33.5557 72.8786 33.313L72.8758 26.3226C76.9169 24.1695 78.0658 24.5213 80.8171 21.3544C87.0317 14.199 83.3935 -0.185944 68.5501 0.701342C64.0596 1.45071 61.8581 2.72315 59.6084 5.19109C57.7022 7.28238 56.022 11.6962 56.8728 15.5247ZM62.6052 8.77219C62.8411 7.73412 63.245 7.4844 63.8298 6.86819C64.9616 5.67559 64.291 6.34407 65.778 5.85811C66.3567 5.01065 67.657 4.63483 68.7069 4.46994C78.3109 2.96271 83.0331 14.3373 76.5245 20.007C70.5027 25.2534 62.0204 21.2141 60.8961 14.9745C60.474 12.6304 61.0168 10.5016 62.6052 8.77219ZM45.1388 37.5892C48.3509 36.6739 93.0598 37.2401 96.8435 37.3538L96.6593 54.6646C92.9844 55.4393 47.5401 55.3675 45.1741 54.4754L45.1388 37.5892ZM31.1612 56.8416C29.1516 61.3137 29.7613 66.195 29.7708 71.2825C29.7756 73.8759 29.4051 84.9697 29.9938 86.3482C30.9907 86.2474 30.2661 86.1109 31.0888 86.5516C31.1495 85.5337 31.3363 85.3302 31.9115 84.8785C32.0172 85.5171 32.193 86.2459 32.324 86.8484C33.6444 86.1617 33.22 86.0847 33.7623 85.4696C34.2548 81.6251 33.7621 76.2715 33.6334 72.2716C33.5597 69.9709 33.4951 67.6643 33.6191 65.3635C33.7124 63.6213 34.3575 60.5048 34.2881 59.2381C34.5135 58.1936 35.0419 57.7216 36.1889 57.3671C37.7658 56.8801 41.9293 57.1678 41.9978 57.1641C46.9174 56.8928 67.4804 56.9718 71.019 57.3402C72.7566 57.5216 74.1832 57.46 75.9663 57.4816C76.9197 57.493 77.2633 57.6666 78.2084 57.6928C82.2538 57.8045 81.4896 57.2906 85.4262 57.2943C88.5694 57.2974 103.248 57.1261 104.732 57.3922C104.949 57.4312 105.102 57.4804 105.242 57.5032C105.963 57.621 107.546 57.9497 107.966 57.3547C108.406 56.7325 108.138 57.2178 108.068 56.5064C108.135 56.5889 108.587 56.6451 108.035 56.5829L104.99 55.6597C103.589 55.5007 103.384 55.7216 102.716 55.8402C101.175 56.1131 101.739 55.6423 100.451 55.5214C100.443 54.2817 100.041 54.6584 100.041 51.1858C100.041 47.0214 100.363 48.7545 100.594 46.6307C100.738 45.308 100.297 45.7264 100.232 44.2897L100.242 39.5614C100.237 38.4505 100.392 38.066 100.452 37.1974C100.795 36.9238 100.614 37.17 101.149 37.1094C104.916 37.41 109.491 37.673 112.864 39.3034C113.967 39.8366 114.726 40.49 115.383 41.3733C116.379 41.1951 117.367 42.3583 117.985 42.8722C118.597 43.3821 119.605 44.0872 119.537 45.1977L120.482 45.8102C120.824 46.0846 120.899 46.1696 121.194 46.5023C121.707 47.0791 121.888 47.3829 122.243 48.0595C122.91 49.3336 123.292 50.5453 123.589 52.0749C124.557 57.067 124.41 77.5636 124.226 82.7175C124.108 86.036 123.334 88.2522 121.88 90.8089C117.33 98.8127 110.165 101.364 100.04 101.264C85.5896 101.122 71.0716 101.342 56.6111 101.358C52.4766 101.362 38.5133 101.543 35.306 100.922C29.8341 99.8622 24.0279 96.0791 22.4735 92.1686C19.2575 91.5232 18.5638 80.0096 18.4221 76.2159C18.1798 69.723 18.3235 62.9727 18.6842 56.5105C19.1613 47.9722 24.5195 41.6015 31.7388 38.8037C33.8277 37.9942 38.2148 36.8941 40.6904 37.422L40.7119 54.9162C38.6938 54.9226 37.1457 54.4954 35.0553 54.9813C32.5481 55.5641 32.2853 56.8416 31.1612 56.8416ZM128.277 59.4281C132.963 58.9374 137.247 64.644 137.126 69.3177C137.011 73.7129 132.827 79.3565 128.348 78.8415L128.279 61.4311L128.277 59.4281ZM13.9217 78.9638C8.95373 78.5803 5.09815 74.253 5.11526 69.1147C5.1326 64.0342 8.92383 59.7305 13.8688 59.2995L13.9217 78.9638ZM103.717 108.496C107.456 110.076 113.746 121.883 113.761 127.962C111.626 128.492 110.476 129.407 108.891 129.84C108.169 130.321 107.586 131.26 107.295 132.035C105.898 131.659 103.801 129.468 103.075 128.471C101.463 126.258 102.193 125.029 102.516 122.307C103.116 117.244 102.224 109.399 102.573 107.624L103.717 108.496ZM40.1812 121.894C40.5444 122.848 41.2522 127.235 40.8607 128.318C40.4233 129.527 38.1233 131.469 36.8517 131.867C36.0826 131.255 35.9101 130.443 35.1535 129.861C33.2052 129.277 32.6594 128.383 30.1474 128.067C30.5437 120.543 35.8908 111.33 40.1405 108.665C40.1492 110.846 39.9884 113.034 39.9813 115.219C39.9741 117.328 40.2822 119.948 40.1812 121.894ZM45.2805 105.806L46.4715 105.303C48.8438 104.854 55.2261 105.141 57.64 105.196C65.9015 105.384 75.9102 105.205 84.3973 105.219C88.7646 105.226 93.2735 105.027 97.5671 105.373L97.8304 105.964C99.0708 108.257 99.1891 114.672 99.0015 117.59C98.02 132.849 88.9137 155.004 69.9896 153.799C66.1442 153.554 62.7674 152.081 60.12 150.473C58.0755 149.232 54.2862 146.027 53.4319 143.951C52.2732 142.681 51.9116 142.9 50.6194 140.659C49.8977 139.408 49.1924 137.942 48.5626 136.52C47.3796 133.85 46.0843 130.427 45.378 127.355C44.6166 124.045 44.2342 119.908 44.049 116.406C43.9192 113.949 43.7552 109.113 44.6162 106.687C44.7128 106.414 44.7141 106.351 44.8669 106.146C45.2779 105.592 44.8684 105.998 45.2805 105.806Z" fill="#030401"/>
<path d="M39.491 61.1343C37.6471 61.4439 36.7352 62.2379 36.4643 64.0044C36.2026 65.7118 36.2928 67.9571 36.33 69.7062C36.6578 85.0799 34.3304 85.592 43.8497 85.5845L79.6631 85.4901C85.5979 85.4754 98.7424 85.6876 103.74 85.4204C105.193 85.3431 104.988 85.1307 105.556 84.4558C106.16 83.7384 105.734 84.6252 106.22 83.7126C106.404 83.3686 106.475 82.8428 106.523 82.3892C106.891 78.8438 106.76 68.7876 106.569 65.3627C106.524 64.5714 106.533 63.6653 106.194 63.0267L105.723 62.3011C105.356 61.6648 105.55 61.6356 104.845 61.362C103.438 60.8163 89.3806 61.077 87.2788 61.077C84.1694 61.077 41.3014 60.83 39.491 61.1343Z" fill="#030401"/>
<path d="M34.288 59.2382C42.5811 58.1841 92.2669 58.3996 104.164 58.9279C104.876 58.9594 107.456 59.0222 108.081 59.2477C108.394 59.3605 108.353 59.3558 108.524 59.4767C109.809 62.1379 109.483 80.2464 109.139 84.1163C108.918 86.6006 108.89 87.4866 106.355 87.9438C104.886 88.209 88.1741 88.0093 85.8382 88.0062L45.0851 87.9979C42.1688 87.9975 37.1805 88.4909 35.3308 87.5165C34.2626 86.954 33.7028 86.9121 33.7621 85.4696C33.2198 86.0848 33.6443 86.1617 32.3239 86.8484C32.1928 86.2459 32.0171 85.5171 31.9114 84.8785C31.3361 85.3302 31.1494 85.5337 31.0887 86.5516C30.266 86.1109 30.9905 86.2474 29.9937 86.3482C30.6192 91.3164 34.4841 91.8799 39.7326 91.8868L102.304 91.8864C107.242 91.8905 112.035 91.6408 112.975 87.2066C113.673 83.9159 113.734 60.5158 112.711 58.2866C112.444 58.1377 112.622 58.2801 112.319 57.9497C110.845 56.3508 109.538 55.3849 109.429 55.2524L101.343 54.7306C101.15 54.4603 101.273 54.7604 101.167 54.2985L101.149 37.1094C100.614 37.17 100.794 36.9238 100.452 37.1974C100.392 38.066 100.237 38.4505 100.242 39.5614L100.232 44.2897C100.297 45.7264 100.738 45.3081 100.594 46.6307C100.362 48.7545 100.041 47.0214 100.041 51.1858C100.041 54.6584 100.443 54.2817 100.451 55.5214C101.739 55.6423 101.174 56.1131 102.715 55.8402C103.383 55.7216 103.588 55.5007 104.99 55.6598L108.035 56.5829C108.587 56.6451 108.135 56.5889 108.068 56.5064C108.138 57.2178 108.406 56.7325 107.965 57.3547C107.545 57.9497 105.963 57.621 105.242 57.5032C105.102 57.4804 104.949 57.4312 104.732 57.3922C103.248 57.1261 88.5693 57.2974 85.4261 57.2943C81.4893 57.2906 82.2537 57.8046 78.2083 57.6928C77.2632 57.6666 76.9195 57.493 75.9662 57.4816C74.183 57.4601 72.7565 57.5217 71.0188 57.3402C67.4802 56.9718 46.9173 56.8928 41.9976 57.1641C41.9292 57.1678 37.7657 56.8801 36.1888 57.3671C35.0418 57.7216 34.5133 58.1937 34.288 59.2382Z" fill="#050301"/>
<path d="M90.8468 67.5048C83.4501 69.5044 87.0816 78.9207 93.2843 77.4323C100.287 75.7519 97.6857 65.6564 90.8468 67.5048Z" fill="#35FFF7"/>
<path d="M44.2987 72.8588C44.9715 79.371 55.4408 78.8919 54.934 72.0837C54.4071 65.0039 43.6238 66.3246 44.2987 72.8588Z" fill="#35FFF7"/>
<path d="M78.3782 116.589C82.7529 118.823 85.7333 123.235 85.7333 128.309C85.7333 135.635 79.5197 141.583 71.8667 141.583C64.2137 141.583 58 135.635 58 128.309C58 123.069 61.1789 118.534 65.7896 116.376" stroke="black" stroke-width="18" stroke-linecap="round"/>
<path d="M72.0834 110.991V129.242" stroke="black" stroke-width="18" stroke-linecap="round"/>
</svg>
