<svg width="168" height="40" viewBox="0 0 168 40" fill="none" xmlns="http://www.w3.org/2000/svg">
<rect x="44" y="6" width="24" height="24" rx="12" fill="#21D4B4"/>
<rect x="26" y="6" width="24" height="24" rx="12" fill="#08E488"/>
<g filter="url(#filter0_d_703_667)">
<rect x="9" y="7" width="22" height="22" rx="11" fill="#1C1B1B" stroke="#1F8BDA" stroke-width="2"/>
</g>
<path d="M76.11 22.5L78.83 15.05H79.69L82.41 22.5H81.57L80.93 20.68H77.6L76.95 22.5H76.11ZM77.86 19.93H80.65L79.14 15.65H79.38L77.86 19.93ZM83.4434 22.5V14.93H84.1934V22.5H83.4434ZM85.8786 22.5V14.93H86.6286V22.5H85.8786ZM92.413 22.62C92.0263 22.62 91.6663 22.5533 91.333 22.42C91.0063 22.2867 90.7196 22.0967 90.473 21.85C90.2263 21.6033 90.0396 21.31 89.913 20.97L90.523 20.67C90.6763 21.0567 90.9263 21.3633 91.273 21.59C91.6263 21.81 92.0063 21.92 92.413 21.92C92.7396 21.92 93.0296 21.8433 93.283 21.69C93.543 21.5367 93.7463 21.33 93.893 21.07C94.0396 20.8033 94.113 20.5067 94.113 20.18C94.113 19.84 94.0363 19.54 93.883 19.28C93.7363 19.02 93.5363 18.8167 93.283 18.67C93.0296 18.5167 92.743 18.44 92.423 18.44C92.0963 18.44 91.793 18.5167 91.513 18.67C91.2396 18.8167 91.0396 18.9967 90.913 19.21L90.283 19.09L90.843 15.05H94.613V15.75H91.133L91.443 15.48L90.993 18.66L90.683 18.52C90.9163 18.2333 91.1896 18.03 91.503 17.91C91.8163 17.7833 92.1363 17.72 92.463 17.72C92.943 17.72 93.3663 17.8333 93.733 18.06C94.0996 18.28 94.3863 18.5767 94.593 18.95C94.8063 19.3167 94.913 19.7267 94.913 20.18C94.913 20.64 94.803 21.0567 94.583 21.43C94.3696 21.7967 94.073 22.0867 93.693 22.3C93.3196 22.5133 92.893 22.62 92.413 22.62ZM101.834 22.62C101.308 22.62 100.824 22.5267 100.384 22.34C99.9443 22.1467 99.561 21.88 99.2343 21.54C98.9143 21.1933 98.6643 20.7867 98.4843 20.32C98.3043 19.8533 98.2143 19.34 98.2143 18.78C98.2143 18.22 98.3043 17.7067 98.4843 17.24C98.6643 16.7733 98.9143 16.3667 99.2343 16.02C99.561 15.6733 99.9443 15.4067 100.384 15.22C100.824 15.0267 101.308 14.93 101.834 14.93C102.341 14.93 102.794 15.02 103.194 15.2C103.601 15.38 103.941 15.6133 104.214 15.9C104.494 16.18 104.694 16.4767 104.814 16.79L104.064 17.12C103.878 16.6867 103.591 16.34 103.204 16.08C102.824 15.8133 102.368 15.68 101.834 15.68C101.288 15.68 100.801 15.81 100.374 16.07C99.9476 16.33 99.6143 16.6933 99.3743 17.16C99.1343 17.62 99.0143 18.16 99.0143 18.78C99.0143 19.3933 99.1343 19.9333 99.3743 20.4C99.6143 20.8667 99.9476 21.23 100.374 21.49C100.801 21.7433 101.288 21.87 101.834 21.87C102.368 21.87 102.824 21.74 103.204 21.48C103.591 21.22 103.878 20.8733 104.064 20.44L104.814 20.77C104.694 21.0767 104.494 21.3733 104.214 21.66C103.941 21.94 103.601 22.17 103.194 22.35C102.794 22.53 102.341 22.62 101.834 22.62ZM108.699 22.62C108.192 22.62 107.732 22.5 107.319 22.26C106.906 22.0133 106.576 21.68 106.329 21.26C106.089 20.8333 105.969 20.35 105.969 19.81C105.969 19.2767 106.089 18.8 106.329 18.38C106.569 17.96 106.892 17.63 107.299 17.39C107.712 17.1433 108.179 17.02 108.699 17.02C109.219 17.02 109.682 17.14 110.089 17.38C110.502 17.62 110.826 17.95 111.059 18.37C111.299 18.79 111.419 19.27 111.419 19.81C111.419 20.3567 111.296 20.8433 111.049 21.27C110.802 21.69 110.472 22.02 110.059 22.26C109.652 22.5 109.199 22.62 108.699 22.62ZM108.699 21.87C109.059 21.87 109.382 21.78 109.669 21.6C109.962 21.42 110.192 21.1733 110.359 20.86C110.532 20.5467 110.619 20.1967 110.619 19.81C110.619 19.4233 110.532 19.0767 110.359 18.77C110.192 18.4633 109.962 18.22 109.669 18.04C109.382 17.86 109.059 17.77 108.699 17.77C108.339 17.77 108.012 17.86 107.719 18.04C107.432 18.22 107.202 18.4633 107.029 18.77C106.856 19.0767 106.769 19.4233 106.769 19.81C106.769 20.1967 106.856 20.5467 107.029 20.86C107.202 21.1733 107.432 21.42 107.719 21.6C108.012 21.78 108.339 21.87 108.699 21.87ZM112.892 22.5V14.93H113.642V22.5H112.892ZM117.837 22.62C117.33 22.62 116.87 22.5 116.457 22.26C116.044 22.0133 115.714 21.68 115.467 21.26C115.227 20.8333 115.107 20.35 115.107 19.81C115.107 19.2767 115.227 18.8 115.467 18.38C115.707 17.96 116.03 17.63 116.437 17.39C116.85 17.1433 117.317 17.02 117.837 17.02C118.357 17.02 118.82 17.14 119.227 17.38C119.64 17.62 119.964 17.95 120.197 18.37C120.437 18.79 120.557 19.27 120.557 19.81C120.557 20.3567 120.434 20.8433 120.187 21.27C119.94 21.69 119.61 22.02 119.197 22.26C118.79 22.5 118.337 22.62 117.837 22.62ZM117.837 21.87C118.197 21.87 118.52 21.78 118.807 21.6C119.1 21.42 119.33 21.1733 119.497 20.86C119.67 20.5467 119.757 20.1967 119.757 19.81C119.757 19.4233 119.67 19.0767 119.497 18.77C119.33 18.4633 119.1 18.22 118.807 18.04C118.52 17.86 118.197 17.77 117.837 17.77C117.477 17.77 117.15 17.86 116.857 18.04C116.57 18.22 116.34 18.4633 116.167 18.77C115.994 19.0767 115.907 19.4233 115.907 19.81C115.907 20.1967 115.994 20.5467 116.167 20.86C116.34 21.1733 116.57 21.42 116.857 21.6C117.15 21.78 117.477 21.87 117.837 21.87ZM122.03 22.5V17.14H122.78V18.02L122.68 17.89C122.806 17.6367 122.996 17.4367 123.25 17.29C123.51 17.1433 123.823 17.07 124.19 17.07H124.53V17.82H124.06C123.673 17.82 123.363 17.94 123.13 18.18C122.896 18.42 122.78 18.76 122.78 19.2V22.5H122.03ZM127.419 22.62C126.905 22.62 126.455 22.49 126.069 22.23C125.682 21.97 125.402 21.6167 125.229 21.17L125.859 20.87C126.012 21.1967 126.225 21.4567 126.499 21.65C126.779 21.8433 127.085 21.94 127.419 21.94C127.739 21.94 128.009 21.8633 128.229 21.71C128.449 21.55 128.559 21.3433 128.559 21.09C128.559 20.9033 128.505 20.7567 128.399 20.65C128.292 20.5367 128.169 20.45 128.029 20.39C127.889 20.33 127.765 20.2867 127.659 20.26L126.889 20.04C126.395 19.9 126.039 19.7033 125.819 19.45C125.599 19.1967 125.489 18.9033 125.489 18.57C125.489 18.2567 125.569 17.9833 125.729 17.75C125.889 17.5167 126.105 17.3367 126.379 17.21C126.652 17.0833 126.955 17.02 127.289 17.02C127.742 17.02 128.152 17.14 128.519 17.38C128.892 17.6133 129.155 17.94 129.309 18.36L128.669 18.66C128.535 18.36 128.342 18.1267 128.089 17.96C127.842 17.7867 127.565 17.7 127.259 17.7C126.959 17.7 126.719 17.7767 126.539 17.93C126.359 18.0833 126.269 18.2767 126.269 18.51C126.269 18.69 126.315 18.8333 126.409 18.94C126.502 19.0467 126.609 19.1267 126.729 19.18C126.855 19.2333 126.965 19.2733 127.059 19.3L127.949 19.56C128.382 19.6867 128.719 19.8833 128.959 20.15C129.205 20.4167 129.329 20.73 129.329 21.09C129.329 21.3833 129.245 21.6467 129.079 21.88C128.919 22.1133 128.695 22.2967 128.409 22.43C128.122 22.5567 127.792 22.62 127.419 22.62Z" fill="#1C1B1B"/>
<path d="M76 24.25H129.879V24.65H76V24.25Z" fill="#1C1B1B"/>
<defs>
<filter id="filter0_d_703_667" x="0" y="0" width="40" height="40" filterUnits="userSpaceOnUse" color-interpolation-filters="sRGB">
<feFlood flood-opacity="0" result="BackgroundImageFix"/>
<feColorMatrix in="SourceAlpha" type="matrix" values="0 0 0 0 0 0 0 0 0 0 0 0 0 0 0 0 0 0 127 0" result="hardAlpha"/>
<feOffset dy="2"/>
<feGaussianBlur stdDeviation="4"/>
<feComposite in2="hardAlpha" operator="out"/>
<feColorMatrix type="matrix" values="0 0 0 0 0 0 0 0 0 0 0 0 0 0 0 0 0 0 0.25 0"/>
<feBlend mode="normal" in2="BackgroundImageFix" result="effect1_dropShadow_703_667"/>
<feBlend mode="normal" in="SourceGraphic" in2="effect1_dropShadow_703_667" result="shape"/>
</filter>
</defs>
</svg>
