<svg width="45" height="44" viewBox="0 0 45 44" fill="none" xmlns="http://www.w3.org/2000/svg">
<rect x="0.5" width="44" height="44" rx="22" fill="white"/>
<path d="M16.9324 24.0862L16.2363 26.6851L13.6918 26.7389C12.9313 25.3285 12.5 23.7148 12.5 21.9999C12.5 20.3417 12.9033 18.7779 13.6181 17.401H13.6187L15.884 17.8163L16.8763 20.068C16.6686 20.6735 16.5554 21.3235 16.5554 21.9999C16.5555 22.734 16.6885 23.4373 16.9324 24.0862Z" fill="#FBBB00"/>
<path d="M32.3253 20.1318C32.4401 20.7368 32.5 21.3615 32.5 22C32.5 22.7159 32.4247 23.4143 32.2813 24.0879C31.7945 26.3802 30.5225 28.3818 28.7605 29.7983L28.7599 29.7978L25.9066 29.6522L25.5028 27.1313C26.672 26.4456 27.5858 25.3725 28.0671 24.0879H22.7198V20.1318H28.1451H32.3253Z" fill="#518EF8"/>
<path d="M28.7599 29.7978L28.7604 29.7984C27.0467 31.1758 24.8697 32 22.5 32C18.6917 32 15.3808 29.8715 13.6917 26.739L16.9324 24.0863C17.7769 26.3401 19.9511 27.9445 22.5 27.9445C23.5956 27.9445 24.622 27.6484 25.5027 27.1313L28.7599 29.7978Z" fill="#28B446"/>
<path d="M28.883 14.3022L25.6434 16.9544C24.7319 16.3846 23.6544 16.0555 22.5 16.0555C19.8934 16.0555 17.6786 17.7335 16.8764 20.0681L13.6187 17.4011H13.6182C15.2825 14.1923 18.6352 12 22.5 12C24.9264 12 27.1511 12.8643 28.883 14.3022Z" fill="#F14336"/>
</svg>
