<svg width="32" height="32" viewBox="0 0 32 32" fill="none" xmlns="http://www.w3.org/2000/svg">
<path d="M12.7599 25.0933C13.0133 25.0933 13.2666 25 13.4666 24.8C13.8533 24.4133 13.8533 23.7733 13.4666 23.3867L6.07992 16L13.4666 8.61334C13.8533 8.22667 13.8533 7.58667 13.4666 7.2C13.0799 6.81334 12.4399 6.81334 12.0533 7.2L3.95992 15.2933C3.57326 15.68 3.57326 16.32 3.95992 16.7067L12.0533 24.8C12.2533 25 12.5066 25.0933 12.7599 25.0933Z" fill="#FFFFFE"/>
<path d="M4.89325 17H27.3333C27.8799 17 28.3333 16.5467 28.3333 16C28.3333 15.4533 27.8799 15 27.3333 15H4.89325C4.34658 15 3.89325 15.4533 3.89325 16C3.89325 16.5467 4.34658 17 4.89325 17Z" fill="#FFFFFE"/>
</svg>
