<svg width="284" height="64" viewBox="0 0 284 64" fill="none" xmlns="http://www.w3.org/2000/svg">
<path d="M127.646 13.8542H155.354V27.7083H127.646V13.8542Z" fill="#CFD8DC"/>
<path d="M127.646 27.7083H155.354V30.625H127.646V27.7083Z" fill="#B0BEC5"/>
<path d="M143.688 17.5H152.438V30.625H143.688V17.5Z" fill="#455A64"/>
<path d="M130.562 17.5H140.771V25.5208H130.562V17.5Z" fill="#E3F2FD"/>
<path d="M131.292 18.2292H140.042V24.7917H131.292V18.2292Z" fill="#1E88E5"/>
<path d="M150.615 24.4271C150.396 24.4271 150.25 24.5729 150.25 24.7917V26.25C150.25 26.4688 150.396 26.6146 150.615 26.6146C150.833 26.6146 150.979 26.4688 150.979 26.25V24.7917C150.979 24.5729 150.833 24.4271 150.615 24.4271Z" fill="#90A4AE"/>
<path d="M141.5 16.0417C142.708 16.0417 143.688 15.0623 143.688 13.8542C143.688 12.646 142.708 11.6667 141.5 11.6667C140.292 11.6667 139.312 12.646 139.312 13.8542C139.312 15.0623 140.292 16.0417 141.5 16.0417Z" fill="#558B2F"/>
<path d="M150.25 16.0417C151.458 16.0417 152.438 15.0623 152.438 13.8542C152.438 12.646 151.458 11.6667 150.25 11.6667C149.042 11.6667 148.062 12.646 148.062 13.8542C148.062 15.0623 149.042 16.0417 150.25 16.0417Z" fill="#558B2F"/>
<path d="M132.75 16.0417C133.958 16.0417 134.938 15.0623 134.938 13.8542C134.938 12.646 133.958 11.6667 132.75 11.6667C131.542 11.6667 130.562 12.646 130.562 13.8542C130.562 15.0623 131.542 16.0417 132.75 16.0417Z" fill="#558B2F"/>
<path d="M153.167 4.375H129.833C129.031 4.375 128.375 5.03125 128.375 5.83333V8.02083H154.625V5.83333C154.625 5.03125 153.969 4.375 153.167 4.375ZM139.312 8.02083H143.688V13.8542H139.312V8.02083ZM150.979 8.02083H147.333L148.062 13.8542H152.438L150.979 8.02083ZM132.021 8.02083H135.667L134.938 13.8542H130.562L132.021 8.02083Z" fill="#7CB342"/>
<path d="M145.875 16.0417C147.083 16.0417 148.062 15.0623 148.062 13.8542C148.062 12.646 147.083 11.6667 145.875 11.6667C144.667 11.6667 143.688 12.646 143.688 13.8542C143.688 15.0623 144.667 16.0417 145.875 16.0417Z" fill="#FFA000"/>
<path d="M156.812 13.8542C156.812 15.0938 155.865 16.0417 154.625 16.0417C153.385 16.0417 152.438 15.0938 152.438 13.8542C152.438 12.6146 153.385 11.6667 154.625 11.6667L156.812 13.8542Z" fill="#FFA000"/>
<path d="M137.125 16.0417C138.333 16.0417 139.312 15.0623 139.312 13.8542C139.312 12.646 138.333 11.6667 137.125 11.6667C135.917 11.6667 134.938 12.646 134.938 13.8542C134.938 15.0623 135.917 16.0417 137.125 16.0417Z" fill="#FFA000"/>
<path d="M126.188 13.8542C126.188 15.0938 127.135 16.0417 128.375 16.0417C129.615 16.0417 130.562 15.0938 130.562 13.8542C130.562 12.6146 129.615 11.6667 128.375 11.6667L126.188 13.8542Z" fill="#FFA000"/>
<path d="M147.333 8.02083H143.688V13.8542H148.062L147.333 8.02083ZM154.625 8.02083H150.979L152.438 13.8542H156.812L154.625 8.02083ZM135.667 8.02083H139.312V13.8542H134.938L135.667 8.02083ZM128.375 8.02083H132.021L130.562 13.8542H126.188L128.375 8.02083Z" fill="#FFC107"/>
<path d="M82.9311 59V41.12H86.0511L92.7471 50.216H91.2591L97.8111 41.12H100.931V59H97.6431V44.84L98.9151 45.152L92.1231 54.2H91.7391L85.1151 45.152L86.1951 44.84V59H82.9311ZM113.161 59.288C111.849 59.288 110.625 59.056 109.489 58.592C108.353 58.128 107.361 57.48 106.513 56.648C105.665 55.816 105.001 54.84 104.521 53.72C104.057 52.584 103.825 51.36 103.825 50.048C103.825 48.72 104.057 47.496 104.521 46.376C104.985 45.256 105.641 44.28 106.489 43.448C107.337 42.616 108.329 41.976 109.465 41.528C110.601 41.064 111.833 40.832 113.161 40.832C114.489 40.832 115.721 41.064 116.857 41.528C117.993 41.992 118.985 42.64 119.833 43.472C120.681 44.288 121.337 45.256 121.801 46.376C122.281 47.496 122.521 48.72 122.521 50.048C122.521 51.36 122.281 52.584 121.801 53.72C121.321 54.84 120.657 55.816 119.809 56.648C118.961 57.48 117.969 58.128 116.833 58.592C115.713 59.056 114.489 59.288 113.161 59.288ZM113.161 56.312C114.041 56.312 114.849 56.16 115.585 55.856C116.321 55.536 116.961 55.096 117.505 54.536C118.065 53.976 118.489 53.312 118.777 52.544C119.081 51.776 119.233 50.944 119.233 50.048C119.233 49.152 119.081 48.328 118.777 47.576C118.489 46.808 118.065 46.144 117.505 45.584C116.961 45.008 116.321 44.568 115.585 44.264C114.849 43.96 114.041 43.808 113.161 43.808C112.297 43.808 111.497 43.96 110.761 44.264C110.025 44.568 109.377 45.008 108.817 45.584C108.273 46.144 107.849 46.808 107.545 47.576C107.241 48.328 107.089 49.152 107.089 50.048C107.089 50.944 107.241 51.776 107.545 52.544C107.849 53.312 108.273 53.976 108.817 54.536C109.377 55.096 110.025 55.536 110.761 55.856C111.497 56.16 112.297 56.312 113.161 56.312ZM131.807 59.288C130.671 59.288 129.615 59.08 128.639 58.664C127.679 58.248 126.847 57.672 126.143 56.936C125.455 56.184 124.951 55.312 124.631 54.32L127.343 53.144C127.775 54.168 128.399 54.976 129.215 55.568C130.031 56.144 130.951 56.432 131.975 56.432C132.551 56.432 133.047 56.344 133.463 56.168C133.895 55.976 134.223 55.72 134.447 55.4C134.687 55.08 134.807 54.696 134.807 54.248C134.807 53.72 134.647 53.288 134.327 52.952C134.023 52.6 133.559 52.328 132.935 52.136L129.503 51.032C128.111 50.6 127.063 49.952 126.359 49.088C125.655 48.224 125.303 47.208 125.303 46.04C125.303 45.016 125.551 44.112 126.047 43.328C126.559 42.544 127.263 41.936 128.159 41.504C129.071 41.056 130.111 40.832 131.279 40.832C132.351 40.832 133.335 41.024 134.231 41.408C135.127 41.776 135.895 42.296 136.535 42.968C137.191 43.624 137.679 44.4 137.999 45.296L135.311 46.496C134.959 45.6 134.431 44.912 133.727 44.432C133.023 43.936 132.207 43.688 131.279 43.688C130.735 43.688 130.255 43.784 129.839 43.976C129.423 44.152 129.095 44.408 128.855 44.744C128.631 45.064 128.519 45.448 128.519 45.896C128.519 46.392 128.679 46.832 128.999 47.216C129.319 47.584 129.807 47.872 130.463 48.08L133.751 49.112C135.175 49.576 136.239 50.216 136.943 51.032C137.663 51.848 138.023 52.856 138.023 54.056C138.023 55.08 137.759 55.984 137.231 56.768C136.703 57.552 135.975 58.168 135.047 58.616C134.119 59.064 133.039 59.288 131.807 59.288ZM140.962 59V41.12H144.226V48.92H151.834V41.12H155.122V59H151.834V51.8H144.226V59H140.962ZM161.732 59V44H157.1V41.12H169.58V44H165.02V59H161.732ZM171.572 59V41.12H178.22C179.436 41.12 180.508 41.344 181.436 41.792C182.38 42.224 183.116 42.864 183.644 43.712C184.172 44.544 184.436 45.56 184.436 46.76C184.436 47.992 184.14 49.04 183.548 49.904C182.972 50.768 182.188 51.408 181.196 51.824L185.3 59H181.604L177.212 51.152L179.324 52.4H174.836V59H171.572ZM174.836 49.52H178.268C178.86 49.52 179.372 49.408 179.804 49.184C180.236 48.944 180.572 48.616 180.812 48.2C181.052 47.784 181.172 47.304 181.172 46.76C181.172 46.2 181.052 45.72 180.812 45.32C180.572 44.904 180.236 44.584 179.804 44.36C179.372 44.12 178.86 44 178.268 44H174.836V49.52ZM185.975 59L192.143 41.12H196.367L202.535 59H198.983L197.711 55.16H190.799L189.503 59H185.975ZM191.735 52.28H196.775L193.799 43.376H194.711L191.735 52.28Z" fill="#1C1B1B"/>
</svg>
