<svg width="119" height="24" viewBox="0 0 119 24" fill="none" xmlns="http://www.w3.org/2000/svg">
<path d="M15.2733 13.05C16.0606 13.05 16.7534 12.6195 17.1103 11.9685L20.8683 5.154C20.9567 4.99485 21.0021 4.81534 20.9999 4.63326C20.9977 4.45117 20.9481 4.27281 20.8558 4.11582C20.7636 3.95884 20.6319 3.82867 20.4739 3.7382C20.3159 3.64773 20.1371 3.60009 19.955 3.6H4.41928L3.43256 1.5H0V3.6H2.09942L5.87838 11.5695L4.46127 14.1315C3.69498 15.5385 4.70271 17.25 6.29827 17.25H18.8948V15.15H6.29827L7.45295 13.05H15.2733ZM5.41651 5.7H18.1705L15.2733 10.95H7.90432L5.41651 5.7ZM6.29827 18.3C5.14358 18.3 4.20934 19.245 4.20934 20.4C4.20934 21.555 5.14358 22.5 6.29827 22.5C7.45295 22.5 8.39769 21.555 8.39769 20.4C8.39769 19.245 7.45295 18.3 6.29827 18.3ZM16.7954 18.3C15.6407 18.3 14.7065 19.245 14.7065 20.4C14.7065 21.555 15.6407 22.5 16.7954 22.5C17.9501 22.5 18.8948 21.555 18.8948 20.4C18.8948 19.245 17.9501 18.3 16.7954 18.3Z" fill="#0F1011"/>
<path d="M28.6983 19.5V6.09H31.0383L36.0603 12.912H34.9443L39.8583 6.09H42.1983V19.5H39.7323V8.88L40.6863 9.114L35.5923 15.9H35.3043L30.3363 9.114L31.1463 8.88V19.5H28.6983ZM51.3708 19.716C50.3868 19.716 49.4688 19.542 48.6168 19.194C47.7648 18.846 47.0208 18.36 46.3848 17.736C45.7488 17.112 45.2508 16.38 44.8908 15.54C44.5428 14.688 44.3688 13.77 44.3688 12.786C44.3688 11.79 44.5428 10.872 44.8908 10.032C45.2388 9.192 45.7308 8.46 46.3668 7.836C47.0028 7.212 47.7468 6.732 48.5988 6.396C49.4508 6.048 50.3748 5.874 51.3708 5.874C52.3668 5.874 53.2908 6.048 54.1428 6.396C54.9948 6.744 55.7388 7.23 56.3748 7.854C57.0108 8.466 57.5028 9.192 57.8508 10.032C58.2108 10.872 58.3908 11.79 58.3908 12.786C58.3908 13.77 58.2108 14.688 57.8508 15.54C57.4908 16.38 56.9928 17.112 56.3568 17.736C55.7208 18.36 54.9768 18.846 54.1248 19.194C53.2848 19.542 52.3668 19.716 51.3708 19.716ZM51.3708 17.484C52.0308 17.484 52.6368 17.37 53.1888 17.142C53.7408 16.902 54.2208 16.572 54.6288 16.152C55.0488 15.732 55.3668 15.234 55.5828 14.658C55.8108 14.082 55.9248 13.458 55.9248 12.786C55.9248 12.114 55.8108 11.496 55.5828 10.932C55.3668 10.356 55.0488 9.858 54.6288 9.438C54.2208 9.006 53.7408 8.676 53.1888 8.448C52.6368 8.22 52.0308 8.106 51.3708 8.106C50.7228 8.106 50.1228 8.22 49.5708 8.448C49.0188 8.676 48.5328 9.006 48.1128 9.438C47.7048 9.858 47.3868 10.356 47.1588 10.932C46.9308 11.496 46.8168 12.114 46.8168 12.786C46.8168 13.458 46.9308 14.082 47.1588 14.658C47.3868 15.234 47.7048 15.732 48.1128 16.152C48.5328 16.572 49.0188 16.902 49.5708 17.142C50.1228 17.37 50.7228 17.484 51.3708 17.484ZM65.3555 19.716C64.5035 19.716 63.7115 19.56 62.9795 19.248C62.2595 18.936 61.6355 18.504 61.1075 17.952C60.5915 17.388 60.2135 16.734 59.9735 15.99L62.0075 15.108C62.3315 15.876 62.7995 16.482 63.4115 16.926C64.0235 17.358 64.7135 17.574 65.4815 17.574C65.9135 17.574 66.2855 17.508 66.5975 17.376C66.9215 17.232 67.1675 17.04 67.3355 16.8C67.5155 16.56 67.6055 16.272 67.6055 15.936C67.6055 15.54 67.4855 15.216 67.2455 14.964C67.0175 14.7 66.6695 14.496 66.2015 14.352L63.6275 13.524C62.5835 13.2 61.7975 12.714 61.2695 12.066C60.7415 11.418 60.4775 10.656 60.4775 9.78C60.4775 9.012 60.6635 8.334 61.0355 7.746C61.4195 7.158 61.9475 6.702 62.6195 6.378C63.3035 6.042 64.0835 5.874 64.9595 5.874C65.7635 5.874 66.5015 6.018 67.1735 6.306C67.8455 6.582 68.4215 6.972 68.9015 7.476C69.3935 7.968 69.7595 8.55 69.9995 9.222L67.9835 10.122C67.7195 9.45 67.3235 8.934 66.7955 8.574C66.2675 8.202 65.6555 8.016 64.9595 8.016C64.5515 8.016 64.1915 8.088 63.8795 8.232C63.5675 8.364 63.3215 8.556 63.1415 8.808C62.9735 9.048 62.8895 9.336 62.8895 9.672C62.8895 10.044 63.0095 10.374 63.2495 10.662C63.4895 10.938 63.8555 11.154 64.3475 11.31L66.8135 12.084C67.8815 12.432 68.6795 12.912 69.2075 13.524C69.7475 14.136 70.0175 14.892 70.0175 15.792C70.0175 16.56 69.8195 17.238 69.4235 17.826C69.0275 18.414 68.4815 18.876 67.7855 19.212C67.0895 19.548 66.2795 19.716 65.3555 19.716ZM72.2218 19.5V6.09H74.6698V11.94H80.3758V6.09H82.8418V19.5H80.3758V14.1H74.6698V19.5H72.2218ZM87.799 19.5V8.25H84.325V6.09H93.685V8.25H90.265V19.5H87.799ZM95.1788 19.5V6.09H100.165C101.077 6.09 101.881 6.258 102.577 6.594C103.285 6.918 103.837 7.398 104.233 8.034C104.629 8.658 104.827 9.42 104.827 10.32C104.827 11.244 104.605 12.03 104.161 12.678C103.729 13.326 103.141 13.806 102.397 14.118L105.475 19.5H102.703L99.4088 13.614L100.993 14.55H97.6268V19.5H95.1788ZM97.6268 12.39H100.201C100.645 12.39 101.029 12.306 101.353 12.138C101.677 11.958 101.929 11.712 102.109 11.4C102.289 11.088 102.379 10.728 102.379 10.32C102.379 9.9 102.289 9.54 102.109 9.24C101.929 8.928 101.677 8.688 101.353 8.52C101.029 8.34 100.645 8.25 100.201 8.25H97.6268V12.39ZM105.981 19.5L110.607 6.09H113.775L118.401 19.5H115.737L114.783 16.62H109.599L108.627 19.5H105.981ZM110.301 14.46H114.081L111.849 7.782H112.533L110.301 14.46Z" fill="#32343D"/>
</svg>
