<svg width="119" height="23" viewBox="0 0 119 23" fill="none" xmlns="http://www.w3.org/2000/svg">
<path d="M15.2733 12.55C16.0606 12.55 16.7534 12.1195 17.1103 11.4685L20.8683 4.654C20.9567 4.49485 21.0021 4.31534 20.9999 4.13326C20.9977 3.95117 20.9481 3.77281 20.8558 3.61582C20.7636 3.45884 20.6319 3.32867 20.4739 3.2382C20.3159 3.14773 20.1371 3.10009 19.955 3.1H4.41928L3.43256 1H0V3.1H2.09942L5.87838 11.0695L4.46127 13.6315C3.69498 15.0385 4.70271 16.75 6.29827 16.75H18.8948V14.65H6.29827L7.45295 12.55H15.2733ZM5.41651 5.2H18.1705L15.2733 10.45H7.90432L5.41651 5.2ZM6.29827 17.8C5.14358 17.8 4.20934 18.745 4.20934 19.9C4.20934 21.055 5.14358 22 6.29827 22C7.45295 22 8.39769 21.055 8.39769 19.9C8.39769 18.745 7.45295 17.8 6.29827 17.8ZM16.7954 17.8C15.6407 17.8 14.7065 18.745 14.7065 19.9C14.7065 21.055 15.6407 22 16.7954 22C17.9501 22 18.8948 21.055 18.8948 19.9C18.8948 18.745 17.9501 17.8 16.7954 17.8Z" fill="white"/>
<path d="M28.6983 19V5.59H31.0383L36.0603 12.412H34.9443L39.8583 5.59H42.1983V19H39.7323V8.38L40.6863 8.614L35.5923 15.4H35.3043L30.3363 8.614L31.1463 8.38V19H28.6983ZM51.3708 19.216C50.3868 19.216 49.4688 19.042 48.6168 18.694C47.7648 18.346 47.0208 17.86 46.3848 17.236C45.7488 16.612 45.2508 15.88 44.8908 15.04C44.5428 14.188 44.3688 13.27 44.3688 12.286C44.3688 11.29 44.5428 10.372 44.8908 9.532C45.2388 8.692 45.7308 7.96 46.3668 7.336C47.0028 6.712 47.7468 6.232 48.5988 5.896C49.4508 5.548 50.3748 5.374 51.3708 5.374C52.3668 5.374 53.2908 5.548 54.1428 5.896C54.9948 6.244 55.7388 6.73 56.3748 7.354C57.0108 7.966 57.5028 8.692 57.8508 9.532C58.2108 10.372 58.3908 11.29 58.3908 12.286C58.3908 13.27 58.2108 14.188 57.8508 15.04C57.4908 15.88 56.9928 16.612 56.3568 17.236C55.7208 17.86 54.9768 18.346 54.1248 18.694C53.2848 19.042 52.3668 19.216 51.3708 19.216ZM51.3708 16.984C52.0308 16.984 52.6368 16.87 53.1888 16.642C53.7408 16.402 54.2208 16.072 54.6288 15.652C55.0488 15.232 55.3668 14.734 55.5828 14.158C55.8108 13.582 55.9248 12.958 55.9248 12.286C55.9248 11.614 55.8108 10.996 55.5828 10.432C55.3668 9.856 55.0488 9.358 54.6288 8.938C54.2208 8.506 53.7408 8.176 53.1888 7.948C52.6368 7.72 52.0308 7.606 51.3708 7.606C50.7228 7.606 50.1228 7.72 49.5708 7.948C49.0188 8.176 48.5328 8.506 48.1128 8.938C47.7048 9.358 47.3868 9.856 47.1588 10.432C46.9308 10.996 46.8168 11.614 46.8168 12.286C46.8168 12.958 46.9308 13.582 47.1588 14.158C47.3868 14.734 47.7048 15.232 48.1128 15.652C48.5328 16.072 49.0188 16.402 49.5708 16.642C50.1228 16.87 50.7228 16.984 51.3708 16.984ZM65.3555 19.216C64.5035 19.216 63.7115 19.06 62.9795 18.748C62.2595 18.436 61.6355 18.004 61.1075 17.452C60.5915 16.888 60.2135 16.234 59.9735 15.49L62.0075 14.608C62.3315 15.376 62.7995 15.982 63.4115 16.426C64.0235 16.858 64.7135 17.074 65.4815 17.074C65.9135 17.074 66.2855 17.008 66.5975 16.876C66.9215 16.732 67.1675 16.54 67.3355 16.3C67.5155 16.06 67.6055 15.772 67.6055 15.436C67.6055 15.04 67.4855 14.716 67.2455 14.464C67.0175 14.2 66.6695 13.996 66.2015 13.852L63.6275 13.024C62.5835 12.7 61.7975 12.214 61.2695 11.566C60.7415 10.918 60.4775 10.156 60.4775 9.28C60.4775 8.512 60.6635 7.834 61.0355 7.246C61.4195 6.658 61.9475 6.202 62.6195 5.878C63.3035 5.542 64.0835 5.374 64.9595 5.374C65.7635 5.374 66.5015 5.518 67.1735 5.806C67.8455 6.082 68.4215 6.472 68.9015 6.976C69.3935 7.468 69.7595 8.05 69.9995 8.722L67.9835 9.622C67.7195 8.95 67.3235 8.434 66.7955 8.074C66.2675 7.702 65.6555 7.516 64.9595 7.516C64.5515 7.516 64.1915 7.588 63.8795 7.732C63.5675 7.864 63.3215 8.056 63.1415 8.308C62.9735 8.548 62.8895 8.836 62.8895 9.172C62.8895 9.544 63.0095 9.874 63.2495 10.162C63.4895 10.438 63.8555 10.654 64.3475 10.81L66.8135 11.584C67.8815 11.932 68.6795 12.412 69.2075 13.024C69.7475 13.636 70.0175 14.392 70.0175 15.292C70.0175 16.06 69.8195 16.738 69.4235 17.326C69.0275 17.914 68.4815 18.376 67.7855 18.712C67.0895 19.048 66.2795 19.216 65.3555 19.216ZM72.2218 19V5.59H74.6698V11.44H80.3758V5.59H82.8418V19H80.3758V13.6H74.6698V19H72.2218ZM87.799 19V7.75H84.325V5.59H93.685V7.75H90.265V19H87.799ZM95.1788 19V5.59H100.165C101.077 5.59 101.881 5.758 102.577 6.094C103.285 6.418 103.837 6.898 104.233 7.534C104.629 8.158 104.827 8.92 104.827 9.82C104.827 10.744 104.605 11.53 104.161 12.178C103.729 12.826 103.141 13.306 102.397 13.618L105.475 19H102.703L99.4088 13.114L100.993 14.05H97.6268V19H95.1788ZM97.6268 11.89H100.201C100.645 11.89 101.029 11.806 101.353 11.638C101.677 11.458 101.929 11.212 102.109 10.9C102.289 10.588 102.379 10.228 102.379 9.82C102.379 9.4 102.289 9.04 102.109 8.74C101.929 8.428 101.677 8.188 101.353 8.02C101.029 7.84 100.645 7.75 100.201 7.75H97.6268V11.89ZM105.981 19L110.607 5.59H113.775L118.401 19H115.737L114.783 16.12H109.599L108.627 19H105.981ZM110.301 13.96H114.081L111.849 7.282H112.533L110.301 13.96Z" fill="white"/>
</svg>
