<svg width="284" height="29" viewBox="0 0 284 29" fill="none" xmlns="http://www.w3.org/2000/svg">
<path d="M68.55 15C69.3 15 69.96 14.59 70.3 13.97L73.88 7.48C73.9643 7.32843 74.0075 7.15747 74.0054 6.98406C74.0034 6.81064 73.956 6.64077 73.8681 6.49126C73.7803 6.34175 73.6548 6.21778 73.5043 6.13162C73.3538 6.04546 73.1834 6.00009 73.01 6H58.21L57.27 4H54V6H56L59.6 13.59L58.25 16.03C57.52 17.37 58.48 19 60 19H72V17H60L61.1 15H68.55ZM59.16 8H71.31L68.55 13H61.53L59.16 8ZM60 20C58.9 20 58.01 20.9 58.01 22C58.01 23.1 58.9 24 60 24C61.1 24 62 23.1 62 22C62 20.9 61.1 20 60 20ZM70 20C68.9 20 68.01 20.9 68.01 22C68.01 23.1 68.9 24 70 24C71.1 24 72 23.1 72 22C72 20.9 71.1 20 70 20Z" fill="#F8F8F8"/>
<path d="M82.9311 24V6.12H86.0511L92.7471 15.216H91.2591L97.8111 6.12H100.931V24H97.6431V9.84L98.9151 10.152L92.1231 19.2H91.7391L85.1151 10.152L86.1951 9.84V24H82.9311ZM113.161 24.288C111.849 24.288 110.625 24.056 109.489 23.592C108.353 23.128 107.361 22.48 106.513 21.648C105.665 20.816 105.001 19.84 104.521 18.72C104.057 17.584 103.825 16.36 103.825 15.048C103.825 13.72 104.057 12.496 104.521 11.376C104.985 10.256 105.641 9.28 106.489 8.448C107.337 7.616 108.329 6.976 109.465 6.528C110.601 6.064 111.833 5.832 113.161 5.832C114.489 5.832 115.721 6.064 116.857 6.528C117.993 6.992 118.985 7.64 119.833 8.472C120.681 9.288 121.337 10.256 121.801 11.376C122.281 12.496 122.521 13.72 122.521 15.048C122.521 16.36 122.281 17.584 121.801 18.72C121.321 19.84 120.657 20.816 119.809 21.648C118.961 22.48 117.969 23.128 116.833 23.592C115.713 24.056 114.489 24.288 113.161 24.288ZM113.161 21.312C114.041 21.312 114.849 21.16 115.585 20.856C116.321 20.536 116.961 20.096 117.505 19.536C118.065 18.976 118.489 18.312 118.777 17.544C119.081 16.776 119.233 15.944 119.233 15.048C119.233 14.152 119.081 13.328 118.777 12.576C118.489 11.808 118.065 11.144 117.505 10.584C116.961 10.008 116.321 9.568 115.585 9.264C114.849 8.96 114.041 8.808 113.161 8.808C112.297 8.808 111.497 8.96 110.761 9.264C110.025 9.568 109.377 10.008 108.817 10.584C108.273 11.144 107.849 11.808 107.545 12.576C107.241 13.328 107.089 14.152 107.089 15.048C107.089 15.944 107.241 16.776 107.545 17.544C107.849 18.312 108.273 18.976 108.817 19.536C109.377 20.096 110.025 20.536 110.761 20.856C111.497 21.16 112.297 21.312 113.161 21.312ZM131.807 24.288C130.671 24.288 129.615 24.08 128.639 23.664C127.679 23.248 126.847 22.672 126.143 21.936C125.455 21.184 124.951 20.312 124.631 19.32L127.343 18.144C127.775 19.168 128.399 19.976 129.215 20.568C130.031 21.144 130.951 21.432 131.975 21.432C132.551 21.432 133.047 21.344 133.463 21.168C133.895 20.976 134.223 20.72 134.447 20.4C134.687 20.08 134.807 19.696 134.807 19.248C134.807 18.72 134.647 18.288 134.327 17.952C134.023 17.6 133.559 17.328 132.935 17.136L129.503 16.032C128.111 15.6 127.063 14.952 126.359 14.088C125.655 13.224 125.303 12.208 125.303 11.04C125.303 10.016 125.551 9.112 126.047 8.328C126.559 7.544 127.263 6.936 128.159 6.504C129.071 6.056 130.111 5.832 131.279 5.832C132.351 5.832 133.335 6.024 134.231 6.408C135.127 6.776 135.895 7.296 136.535 7.968C137.191 8.624 137.679 9.4 137.999 10.296L135.311 11.496C134.959 10.6 134.431 9.912 133.727 9.432C133.023 8.936 132.207 8.688 131.279 8.688C130.735 8.688 130.255 8.784 129.839 8.976C129.423 9.152 129.095 9.408 128.855 9.744C128.631 10.064 128.519 10.448 128.519 10.896C128.519 11.392 128.679 11.832 128.999 12.216C129.319 12.584 129.807 12.872 130.463 13.08L133.751 14.112C135.175 14.576 136.239 15.216 136.943 16.032C137.663 16.848 138.023 17.856 138.023 19.056C138.023 20.08 137.759 20.984 137.231 21.768C136.703 22.552 135.975 23.168 135.047 23.616C134.119 24.064 133.039 24.288 131.807 24.288ZM140.962 24V6.12H144.226V13.92H151.834V6.12H155.122V24H151.834V16.8H144.226V24H140.962ZM161.732 24V9H157.1V6.12H169.58V9H165.02V24H161.732ZM171.572 24V6.12H178.22C179.436 6.12 180.508 6.344 181.436 6.792C182.38 7.224 183.116 7.864 183.644 8.712C184.172 9.544 184.436 10.56 184.436 11.76C184.436 12.992 184.14 14.04 183.548 14.904C182.972 15.768 182.188 16.408 181.196 16.824L185.3 24H181.604L177.212 16.152L179.324 17.4H174.836V24H171.572ZM174.836 14.52H178.268C178.86 14.52 179.372 14.408 179.804 14.184C180.236 13.944 180.572 13.616 180.812 13.2C181.052 12.784 181.172 12.304 181.172 11.76C181.172 11.2 181.052 10.72 180.812 10.32C180.572 9.904 180.236 9.584 179.804 9.36C179.372 9.12 178.86 9 178.268 9H174.836V14.52ZM185.975 24L192.143 6.12H196.367L202.535 24H198.983L197.711 20.16H190.799L189.503 24H185.975ZM191.735 17.28H196.775L193.799 8.376H194.711L191.735 17.28Z" fill="white"/>
</svg>
