<?xml version="1.0" encoding="UTF-8"?>
<svg id="Layer_2" data-name="Layer 2" xmlns="http://www.w3.org/2000/svg" viewBox="0 0 402.83 90.54">
  <defs>
    <style>
      .cls-1 {
        fill: #fff;
        font-family: Alexandria-Bold, Alexandria;
        font-size: 59.39px;
        font-variation-settings: 'wght' 700;
        font-weight: 700;
      }

      .cls-2 {
        fill: #478991;
        stroke-width: 0px;
      }
    </style>
  </defs>
  <g id="Layer_1-2" data-name="Layer 1">
    <g>
      <g>
        <path class="cls-2" d="m53.74,42.65c1.64.1,1.84-2.38.2-2.52-2.55-.22-5.01.07-7.42-.08-3.16-.19-7.28.33-7.34-3.97-.06-4.68,4.25-4.05,7.53-4.26,1.29-.08,2.62.11,3.96.02,1.68-.11,1.55-2.68-.13-2.64-.54.02-1.08.07-1.58.06-6.16-.17-12.33-.12-18.49-.19-2.89-.03-5.58-.75-5.59-4.24-.02-3.58,2.65-4.13,5.6-4.09,5.16.08,10.33.09,15.49.13,2.83.02,4.55-.45,2.93-3.99-3.83-8.38-1.53-8.87-11.83-8.71-2.9.05-5.61-.59-5.62-4.16,0-3.75,2.97-3.84,5.73-3.95,5.74-.23,14.57-.62,17.81,9.82.82,3.98,3.78,4.36,7.24,4.36,20.99-.03,41.98.08,62.97.14,8.47.02,9.47,1.61,6.37,9.32-3.78,9.42-7.46,18.89-11,28.4-1.43,3.83-3.79,5.35-7.91,5.28-12.33-.2-24.66-.08-36.99-.08-1.16,0-2.35-.04-3.47.18-1.9.37-2.98,1.79-2.78,3.6.2,1.84,2,1.41,3.24,1.42,12.83.09,25.66.12,38.48.19,2.35.01,4.7-.03,5.89,2.7,1.29,2.99-.6,4.27-2.73,5.48-1.89,1.07-.9,2.54-.62,3.95,1.07,5.42-.32,10.02-5.1,13.03-4.16,2.63-8.82,2.55-12.77-.12-4.52-3.04-6.14-7.72-4.93-13.18.27-1.22,1.41-2.84-.45-3.41-2.54-.77-5.31-.84-7.83.13-1.43.55-.61,1.99-.44,3.1,1.04,6.89-.52,11.33-5.31,13.78-4.28,2.19-19.86,4.47-17.03-14.87.58-3.96-1.2-10.33-1.26-10.51-.38-1.28-2.46-.9-3.87-1.01-3.36-.25-8.1.82-7.99-4.26.08-3.94,2.94-3.87,5.72-3.84.87,0,9.02.56,8.92-1.4-.07-1.54-4.14-1.32-6.43-1.38-7.49-.21-14.99-.1-22.49-.19-2.82-.03-5.72-.61-5.67-4.16.05-3.63,3.13-3.89,5.85-3.93,6.66-.09,13.33.02,19.99-.05.37,0,.75.02,1.14.05Zm10.86-20.27c-2.42.08-4.67.32-3.4,3.63,2.62,6.83,5.38,13.6,8.07,20.4,1.24,3.13,3.97,2.4,8.21,2.48,12.12.24,15.16.24,28.01,0,5.31-.09,7.83.7,9.05-3.42,1.79-6.01,3.94-11.9,6.78-17.48,2.14-4.2,1.39-5.61-2.29-5.58-8.99,0-45.29-.36-54.43-.04Zm6.43,52.2c-2.09-.03-3.59.97-3.72,3.09-.13,2.17,1.4,3.27,3.43,3.49,2.16.24,3.53-.72,3.61-3.01.07-2.2-1.13-3.34-3.31-3.56Zm35.06,3.07c-.51-1.88-1.71-3.22-3.83-3.06-2.01.15-3.56,1.27-3.38,3.49.17,2.13,1.7,3.19,3.78,3.16,2.17-.04,3.31-1.3,3.43-3.59Z"/>
        <path class="cls-2" d="m26.03,39.03c-2.81,0-5.62.1-8.43-.03-2.71-.12-4.38-1.62-4.28-4.42.09-2.64,1.91-3.75,4.35-3.76,5.13-.02,10.25.02,15.38.15,2.68.07,4.46,1.38,4.29,4.3-.15,2.65-1.89,3.7-4.36,3.73-2.31.03-4.63,0-6.94,0,0,0,0,.01,0,.02Z"/>
        <path class="cls-2" d="m11.4,27.95c-2.48,0-4.98.18-7.43-.05C1.62,27.67-.05,26.4,0,23.71c.05-2.47,1.67-3.74,3.78-3.8,5.28-.15,10.57-.08,15.85.14,2.55.1,3.83,1.87,3.71,4.37-.12,2.42-1.85,3.46-4.01,3.59-2.63.16-5.29.04-7.93.04,0-.03,0-.07,0-.1Z"/>
      </g>
      <text class="cls-1" transform="translate(151.82 56.92)"><tspan x="0" y="0">Moshtra</tspan></text>
    </g>
  </g>
</svg>