<svg width="428" height="350" viewBox="0 0 428 350" fill="none" xmlns="http://www.w3.org/2000/svg">
<path d="M430.476 0H0.97757V335.272C20.2482 345.155 44.8136 351.175 75.7648 348.54C168.141 340.497 347.667 197.432 430.476 159.832V0Z" fill="#037EEE"/>
<path opacity="0.2" d="M430.475 0H189.297C190.494 48.2727 208.811 94.549 240.98 130.568C273.148 166.587 317.074 190.003 364.914 196.637C390.071 181.029 412.636 167.897 430.475 159.741V0Z" fill="white"/>
<path fill-rule="evenodd" clip-rule="evenodd" d="M53.0619 142.464C52.3005 142.759 51.5663 143.12 50.8678 143.543L50.7387 143.62C52.0653 144.92 53.687 145.879 55.4652 146.416C55.0586 145.944 54.6847 145.445 54.3462 144.922C53.8422 144.146 53.4102 143.324 53.0555 142.469L53.0619 142.464ZM62.5291 141.758C61.4236 141.518 60.2967 141.391 59.1656 141.38C57.7895 141.365 56.4168 141.519 55.078 141.838C55.3671 142.511 55.7125 143.159 56.1105 143.774C56.648 144.608 57.2934 145.368 58.0298 146.032C58.528 146.464 59.0623 146.504 59.5554 146.022C60.2865 145.36 60.9275 144.604 61.4617 143.774C61.8778 143.133 62.2371 142.457 62.5356 141.753L62.5291 141.758ZM66.9613 143.484C66.2005 143.023 65.3964 142.639 64.5606 142.335C64.1962 143.236 63.7467 144.101 63.2183 144.917C62.8789 145.439 62.5051 145.938 62.0993 146.411C63.939 145.857 65.6106 144.851 66.9613 143.484V143.484ZM65.2318 140.348C66.3094 140.735 67.3413 141.239 68.3088 141.851C69.3995 140.245 70.0632 138.388 70.2371 136.454H65.832C65.7693 137.77 65.5681 139.075 65.2318 140.348V140.348ZM54.39 139.852C57.2873 139.128 60.3142 139.096 63.2261 139.759C63.51 138.678 63.683 137.571 63.7424 136.454H53.835C53.8973 137.603 54.0798 138.742 54.3797 139.852H54.39ZM49.3873 142.01C49.5164 141.922 49.6571 141.837 49.7952 141.751C50.6209 141.251 51.4901 140.826 52.3921 140.482C52.0298 139.167 51.8134 137.816 51.7467 136.453H47.339C47.5191 138.452 48.222 140.368 49.377 142.01H49.3873ZM52.4411 130.332C51.5228 129.983 50.6385 129.551 49.7991 129.041C49.6623 128.959 49.5267 128.873 49.3938 128.783C48.2349 130.425 47.5297 132.344 47.3494 134.346H51.7596C51.8372 132.988 52.0622 131.642 52.4308 130.332H52.4411ZM63.1667 131.051C60.2864 131.698 57.2951 131.667 54.4288 130.961C54.1178 132.07 53.9232 133.208 53.848 134.358H63.723C63.6491 133.24 63.4627 132.132 63.1667 131.051ZM68.2985 128.952C67.3179 129.573 66.2706 130.081 65.1763 130.468C65.5267 131.737 65.743 133.039 65.8216 134.354H70.2319C70.0575 132.418 69.3925 130.559 68.2998 128.952H68.2985ZM64.4974 128.487C65.3537 128.183 66.1774 127.794 66.9562 127.325C65.5806 125.932 63.8719 124.913 61.9922 124.366C62.5087 124.969 62.9749 125.613 63.3861 126.293C63.8129 126.994 64.1848 127.728 64.4987 128.487H64.4974ZM55.1373 128.975C57.5454 129.536 60.0466 129.566 62.4672 129.062C62.2163 128.479 61.9256 127.915 61.5972 127.372C61.0028 126.388 60.2709 125.494 59.4237 124.717C58.901 124.309 58.6416 124.32 58.133 124.717C57.2861 125.494 56.555 126.389 55.9621 127.373C55.6525 127.888 55.3774 128.424 55.1386 128.975H55.1373ZM50.749 127.181L50.869 127.256C51.5859 127.689 52.3401 128.058 53.1226 128.357C53.4236 127.643 53.7764 126.953 54.1784 126.291C54.5896 125.612 55.0558 124.968 55.5723 124.365C53.7585 124.892 52.103 125.859 50.7529 127.181H50.749ZM58.781 121.877C61.456 121.876 64.0712 122.669 66.2959 124.155C68.5206 125.64 70.2548 127.753 71.2791 130.225C72.3035 132.696 72.5719 135.417 72.0506 138.041C71.5293 140.665 70.2415 143.076 68.3503 144.969C66.459 146.861 64.0492 148.15 61.4256 148.672C58.802 149.194 56.0825 148.926 53.6111 147.903C51.1396 146.879 49.0273 145.145 47.5412 142.92C46.0551 140.695 45.2621 138.079 45.2623 135.403C45.2623 133.627 45.6121 131.868 46.2916 130.227C46.9712 128.586 47.9673 127.095 49.223 125.839C50.4786 124.583 51.9694 123.587 53.61 122.907C55.2506 122.227 57.009 121.877 58.7848 121.877H58.781ZM58.781 120C61.8268 119.999 64.8044 120.902 67.3373 122.594C69.8702 124.286 71.8446 126.692 73.0107 129.506C74.1768 132.321 74.4823 135.418 73.8886 138.406C73.2948 141.394 71.8285 144.139 69.6751 146.294C67.5216 148.448 64.7777 149.916 61.7905 150.51C58.8032 151.105 55.7068 150.8 52.8927 149.635C50.0787 148.469 47.6734 146.495 45.9812 143.961C44.2889 141.428 43.3857 138.45 43.3857 135.403C43.3857 131.318 45.0081 127.4 47.896 124.512C50.7839 121.623 54.7007 120 58.7848 120H58.781Z" fill="white"/>
<path d="M49.3822 151.021L49.7784 152.631H68.7851C69.6369 152.631 70.3339 153.264 70.3339 154.043C70.3339 154.823 69.6434 155.463 68.7851 155.463H48.551C47.8463 155.463 47.2112 155.019 47.0499 154.365L42.064 134.125H36.9413C36.0765 134.125 35.1924 133.571 35.1924 132.727C35.1924 131.883 36.0765 131.328 36.9413 131.328H43.516C44.2904 131.328 45.0932 131.769 45.2417 132.501V132.517L46.1038 135.82H74.1905C75.9226 135.871 76.2556 136.396 75.8412 137.886L73.1915 148.261C72.6081 150.418 70.9199 151.087 68.625 151.043H50.3308C50.0144 151.05 49.6977 151.041 49.3822 151.016" fill="white"/>
<path opacity="0.04" fill-rule="evenodd" clip-rule="evenodd" d="M74.4241 139.956L75.0075 137.674V137.667C75.0475 137.522 75.1739 137.009 75.1262 136.842C74.9661 136.729 74.3621 136.694 74.175 136.688H45.4391L44.4066 132.715L44.3975 132.674C44.333 132.346 43.8064 132.196 43.5186 132.196H36.9413C36.6547 132.196 36.0558 132.367 36.0558 132.732C36.0558 133.098 36.6547 133.268 36.9413 133.268H42.739L44.3356 139.74C48.3721 141.001 52.5465 141.767 56.7675 142.021L56.3351 140.407C56.2957 140.261 56.2955 140.107 56.3346 139.961C56.3736 139.814 56.4505 139.681 56.5576 139.574C56.6646 139.466 56.798 139.389 56.9443 139.35C57.0905 139.311 57.2446 139.311 57.3909 139.35L62.2413 140.644C62.379 140.681 62.5054 140.752 62.6092 140.85C62.7129 140.948 62.7908 141.07 62.8358 141.205C62.8808 141.341 62.8915 141.485 62.8671 141.626C62.8426 141.766 62.7837 141.899 62.6956 142.011C66.6697 141.766 70.6038 141.075 74.4241 139.953" fill="black"/>
<path fill-rule="evenodd" clip-rule="evenodd" d="M28.224 138.098H40.279C40.5694 138.098 40.8477 138.214 41.0531 138.42C41.2584 138.625 41.3741 138.903 41.3748 139.194V139.194C41.3741 139.484 41.2584 139.763 41.0531 139.968C40.8477 140.174 40.5694 140.289 40.279 140.29H28.224C27.9336 140.289 27.6552 140.174 27.4499 139.968C27.2445 139.763 27.1289 139.484 27.1282 139.194V139.194C27.1289 138.903 27.2445 138.625 27.4499 138.42C27.6552 138.214 27.9336 138.098 28.224 138.098" fill="white"/>
<path fill-rule="evenodd" clip-rule="evenodd" d="M32.8459 143.613H40.9772C41.2676 143.614 41.546 143.729 41.7513 143.935C41.9567 144.14 42.0723 144.419 42.073 144.709V144.709C42.0723 145 41.9567 145.278 41.7513 145.483C41.546 145.689 41.2676 145.805 40.9772 145.805H32.8459C32.5555 145.805 32.2772 145.689 32.0718 145.483C31.8665 145.278 31.7508 145 31.7501 144.709V144.709C31.7508 144.419 31.8665 144.14 32.0718 143.935C32.2772 143.729 32.5555 143.614 32.8459 143.613" fill="white"/>
<path fill-rule="evenodd" clip-rule="evenodd" d="M22.0958 148.631H43.134C43.4244 148.632 43.7027 148.748 43.9081 148.953C44.1134 149.159 44.2291 149.437 44.2298 149.727C44.2291 150.018 44.1134 150.296 43.9081 150.502C43.7027 150.707 43.4244 150.823 43.134 150.824H22.0958C21.8054 150.823 21.5271 150.707 21.3217 150.502C21.1163 150.296 21.0007 150.018 21 149.727C21.0007 149.437 21.1163 149.159 21.3217 148.953C21.5271 148.748 21.8054 148.632 22.0958 148.631" fill="white"/>
<path fill-rule="evenodd" clip-rule="evenodd" d="M52.8928 157.853C53.3035 157.851 53.7054 157.972 54.0478 158.199C54.3901 158.425 54.6573 158.749 54.8156 159.128C54.974 159.507 55.0163 159.924 54.9372 160.328C54.858 160.731 54.6611 161.101 54.3713 161.392C54.0814 161.683 53.7117 161.882 53.3091 161.962C52.9064 162.043 52.4888 162.002 52.1093 161.845C51.7298 161.688 51.4055 161.422 51.1773 161.081C50.9492 160.739 50.8275 160.337 50.8277 159.927C50.8267 159.655 50.8794 159.385 50.9827 159.134C51.086 158.882 51.238 158.654 51.4299 158.461C51.6217 158.268 51.8497 158.115 52.1008 158.011C52.3518 157.907 52.621 157.853 52.8928 157.853Z" fill="white"/>
<path fill-rule="evenodd" clip-rule="evenodd" d="M64.793 157.853C65.2036 157.851 65.6056 157.972 65.9479 158.199C66.2902 158.425 66.5574 158.749 66.7158 159.128C66.8741 159.507 66.9164 159.924 66.8373 160.328C66.7582 160.731 66.5612 161.101 66.2714 161.392C65.9815 161.683 65.6118 161.882 65.2092 161.962C64.8065 162.043 64.389 162.002 64.0095 161.845C63.63 161.688 63.3056 161.422 63.0774 161.081C62.8493 160.739 62.7276 160.337 62.7279 159.927C62.7268 159.655 62.7795 159.385 62.8828 159.134C62.9861 158.882 63.1381 158.654 63.33 158.461C63.5218 158.268 63.7498 158.115 64.0009 158.011C64.2519 157.907 64.5211 157.853 64.793 157.853Z" fill="white"/>
<path fill-rule="evenodd" clip-rule="evenodd" d="M57.1676 140.18L59.5915 140.83L62.0167 141.479L61.2178 142.278L63.9992 145.062L62.0477 147.014L59.2663 144.231L58.4673 145.031L57.8168 142.605L57.1676 140.18Z" fill="#037EE6"/>
<path d="M23.212 195V175.26H26.376L33.628 191.584H32.76L40.012 175.26H43.148V195H39.872V180.356H40.88L34.244 195H32.088L25.452 180.356H26.488V195H23.212ZM53.6513 195.28C52.1953 195.28 50.9353 194.981 49.8713 194.384C48.8073 193.787 47.9766 192.937 47.3793 191.836C46.8006 190.735 46.5113 189.428 46.5113 187.916C46.5113 186.404 46.8006 185.107 47.3793 184.024C47.9766 182.923 48.8073 182.073 49.8713 181.476C50.9353 180.879 52.1953 180.58 53.6513 180.58C55.1073 180.58 56.3673 180.879 57.4313 181.476C58.5139 182.073 59.3446 182.923 59.9233 184.024C60.5206 185.107 60.8193 186.404 60.8193 187.916C60.8193 189.428 60.5206 190.735 59.9233 191.836C59.3446 192.937 58.5139 193.787 57.4313 194.384C56.3673 194.981 55.1073 195.28 53.6513 195.28ZM53.6513 192.592C54.7526 192.592 55.6299 192.209 56.2833 191.444C56.9366 190.66 57.2633 189.484 57.2633 187.916C57.2633 186.348 56.9366 185.181 56.2833 184.416C55.6299 183.651 54.7526 183.268 53.6513 183.268C52.5499 183.268 51.6726 183.651 51.0193 184.416C50.3659 185.181 50.0393 186.348 50.0393 187.916C50.0393 189.484 50.3659 190.66 51.0193 191.444C51.6726 192.209 52.5499 192.592 53.6513 192.592ZM68.8776 195.28C67.6643 195.28 66.5443 195.14 65.5176 194.86C64.5096 194.561 63.6603 194.151 62.9696 193.628L63.9496 191.276C64.6589 191.761 65.4429 192.135 66.3016 192.396C67.1603 192.657 68.0283 192.788 68.9056 192.788C69.8389 192.788 70.5296 192.629 70.9776 192.312C71.4443 191.995 71.6776 191.565 71.6776 191.024C71.6776 190.595 71.5283 190.259 71.2296 190.016C70.9496 189.755 70.4923 189.559 69.8576 189.428L67.0576 188.896C65.8629 188.635 64.9483 188.187 64.3136 187.552C63.6976 186.917 63.3896 186.087 63.3896 185.06C63.3896 184.183 63.6229 183.408 64.0896 182.736C64.5749 182.064 65.2563 181.541 66.1336 181.168C67.0296 180.776 68.0749 180.58 69.2696 180.58C70.3149 180.58 71.2949 180.72 72.2096 181C73.1429 181.28 73.9269 181.7 74.5616 182.26L73.5536 184.528C72.9749 184.061 72.3123 183.697 71.5656 183.436C70.8189 183.175 70.0909 183.044 69.3816 183.044C68.4109 183.044 67.7016 183.221 67.2536 183.576C66.8056 183.912 66.5816 184.351 66.5816 184.892C66.5816 185.303 66.7123 185.648 66.9736 185.928C67.2536 186.189 67.6829 186.385 68.2616 186.516L71.0616 187.048C72.3123 187.291 73.2549 187.72 73.8896 188.336C74.5429 188.933 74.8696 189.755 74.8696 190.8C74.8696 191.733 74.6176 192.536 74.1136 193.208C73.6096 193.88 72.9096 194.393 72.0136 194.748C71.1176 195.103 70.0723 195.28 68.8776 195.28ZM77.8649 195V174.392H81.3649V183.688H80.9729C81.4023 182.68 82.0649 181.915 82.9609 181.392C83.8569 180.851 84.8836 180.58 86.0409 180.58C87.7209 180.58 88.9716 181.056 89.7929 182.008C90.6143 182.941 91.0249 184.369 91.0249 186.292V195H87.5249V186.46C87.5249 185.359 87.3103 184.565 86.8809 184.08C86.4703 183.576 85.8076 183.324 84.8929 183.324C83.8289 183.324 82.9703 183.66 82.3169 184.332C81.6823 184.985 81.3649 185.863 81.3649 186.964V195H77.8649ZM100.784 195.28C99.104 195.28 97.8347 194.841 96.976 193.964C96.1174 193.087 95.688 191.771 95.688 190.016V183.492H92.972V180.86H95.688V177.248L99.188 176.352V180.86H102.968V183.492H99.188V189.792C99.188 190.763 99.3747 191.444 99.748 191.836C100.121 192.228 100.635 192.424 101.288 192.424C101.643 192.424 101.941 192.396 102.184 192.34C102.445 192.284 102.697 192.209 102.94 192.116V194.888C102.623 195.019 102.268 195.112 101.876 195.168C101.503 195.243 101.139 195.28 100.784 195.28ZM105.317 195V184.472C105.317 183.875 105.299 183.268 105.261 182.652C105.243 182.036 105.196 181.439 105.121 180.86H108.509L108.901 184.724H108.341C108.528 183.791 108.836 183.016 109.265 182.4C109.713 181.784 110.255 181.327 110.889 181.028C111.524 180.729 112.215 180.58 112.961 180.58C113.297 180.58 113.568 180.599 113.773 180.636C113.979 180.655 114.184 180.701 114.389 180.776L114.361 183.856C114.007 183.707 113.699 183.613 113.437 183.576C113.195 183.539 112.887 183.52 112.513 183.52C111.711 183.52 111.029 183.688 110.469 184.024C109.928 184.36 109.517 184.827 109.237 185.424C108.976 186.021 108.845 186.703 108.845 187.468V195H105.317ZM121.661 195.28C120.429 195.28 119.346 194.991 118.413 194.412C117.48 193.815 116.752 192.965 116.229 191.864C115.706 190.763 115.445 189.447 115.445 187.916C115.445 186.385 115.706 185.079 116.229 183.996C116.752 182.895 117.48 182.055 118.413 181.476C119.346 180.879 120.429 180.58 121.661 180.58C122.856 180.58 123.901 180.879 124.797 181.476C125.712 182.055 126.318 182.839 126.617 183.828H126.309L126.617 180.86H129.977C129.921 181.439 129.865 182.027 129.809 182.624C129.772 183.221 129.753 183.809 129.753 184.388V195H126.281L126.253 192.088H126.589C126.29 193.059 125.684 193.833 124.769 194.412C123.854 194.991 122.818 195.28 121.661 195.28ZM122.641 192.592C123.742 192.592 124.629 192.209 125.301 191.444C125.973 190.66 126.309 189.484 126.309 187.916C126.309 186.348 125.973 185.181 125.301 184.416C124.629 183.651 123.742 183.268 122.641 183.268C121.54 183.268 120.653 183.651 119.981 184.416C119.309 185.181 118.973 186.348 118.973 187.916C118.973 189.484 119.3 190.66 119.953 191.444C120.625 192.209 121.521 192.592 122.641 192.592Z" fill="white"/>
<path d="M22.408 233V221.72H27C28.184 221.72 29.096 222.008 29.736 222.584C30.376 223.149 30.696 223.939 30.696 224.952C30.696 225.944 30.376 226.733 29.736 227.32C29.096 227.896 28.184 228.184 27 228.184H23.736V233H22.408ZM23.736 227.08H26.872C27.6933 227.08 28.312 226.893 28.728 226.52C29.1547 226.147 29.368 225.624 29.368 224.952C29.368 224.269 29.1547 223.741 28.728 223.368C28.312 222.995 27.6933 222.808 26.872 222.808H23.736V227.08ZM32.4976 233V226.904C32.4976 226.584 32.487 226.259 32.4656 225.928C32.455 225.597 32.4336 225.277 32.4016 224.968H33.6496L33.8096 226.92L33.5856 226.936C33.6923 226.456 33.879 226.061 34.1456 225.752C34.4123 225.443 34.727 225.213 35.0896 225.064C35.4523 224.904 35.831 224.824 36.2256 224.824C36.3856 224.824 36.5243 224.829 36.6416 224.84C36.7696 224.851 36.887 224.877 36.9936 224.92L36.9776 226.072C36.8176 226.019 36.6683 225.987 36.5296 225.976C36.4016 225.955 36.2523 225.944 36.0816 225.944C35.6123 225.944 35.2016 226.056 34.8496 226.28C34.5083 226.504 34.247 226.792 34.0656 227.144C33.895 227.496 33.8096 227.869 33.8096 228.264V233H32.4976ZM41.5444 233.144C40.7764 233.144 40.1044 232.979 39.5284 232.648C38.963 232.307 38.5257 231.827 38.2164 231.208C37.907 230.579 37.7524 229.837 37.7524 228.984C37.7524 228.12 37.907 227.379 38.2164 226.76C38.5257 226.141 38.963 225.667 39.5284 225.336C40.1044 224.995 40.7764 224.824 41.5444 224.824C42.323 224.824 42.995 224.995 43.5604 225.336C44.1364 225.667 44.579 226.141 44.8884 226.76C45.2084 227.379 45.3684 228.12 45.3684 228.984C45.3684 229.837 45.2084 230.579 44.8884 231.208C44.579 231.827 44.1364 232.307 43.5604 232.648C42.995 232.979 42.323 233.144 41.5444 233.144ZM41.5444 232.088C42.3124 232.088 42.9204 231.827 43.3684 231.304C43.8164 230.771 44.0404 229.997 44.0404 228.984C44.0404 227.96 43.811 227.187 43.3524 226.664C42.9044 226.131 42.3017 225.864 41.5444 225.864C40.787 225.864 40.1844 226.131 39.7364 226.664C39.2884 227.187 39.0644 227.96 39.0644 228.984C39.0644 229.997 39.2884 230.771 39.7364 231.304C40.1844 231.827 40.787 232.088 41.5444 232.088ZM47.7269 233V225.976H46.1589V224.968H48.0789L47.7269 225.304V223.96C47.7269 223.053 47.9562 222.36 48.4149 221.88C48.8735 221.4 49.5295 221.16 50.3829 221.16C50.5962 221.16 50.8149 221.181 51.0389 221.224C51.2735 221.256 51.4655 221.304 51.6149 221.368V222.44C51.4869 222.387 51.3269 222.344 51.1349 222.312C50.9535 222.269 50.7669 222.248 50.5749 222.248C50.2442 222.248 49.9615 222.317 49.7269 222.456C49.4922 222.584 49.3162 222.781 49.1989 223.048C49.0815 223.315 49.0229 223.656 49.0229 224.072V225.24L48.8149 224.968H51.2629V225.976H49.0229V233H47.7269ZM56.0664 233.144C54.8077 233.144 53.8157 232.781 53.0904 232.056C52.365 231.32 52.0024 230.301 52.0024 229C52.0024 228.157 52.1624 227.427 52.4824 226.808C52.8024 226.179 53.2504 225.693 53.8264 225.352C54.4024 225 55.0637 224.824 55.8104 224.824C56.5464 224.824 57.165 224.979 57.6664 225.288C58.1677 225.597 58.5517 226.04 58.8184 226.616C59.085 227.181 59.2184 227.853 59.2184 228.632V229.112H52.9944V228.296H58.3704L58.0984 228.504C58.0984 227.651 57.9064 226.984 57.5224 226.504C57.1384 226.024 56.5677 225.784 55.8104 225.784C55.0104 225.784 54.3864 226.067 53.9384 226.632C53.4904 227.187 53.2664 227.939 53.2664 228.888V229.032C53.2664 230.035 53.5117 230.797 54.0024 231.32C54.5037 231.832 55.2024 232.088 56.0984 232.088C56.5784 232.088 57.0264 232.019 57.4424 231.88C57.869 231.731 58.2744 231.491 58.6584 231.16L59.1064 232.072C58.7544 232.413 58.3064 232.68 57.7624 232.872C57.229 233.053 56.6637 233.144 56.0664 233.144ZM63.8735 233.144C63.2335 233.144 62.6362 233.059 62.0815 232.888C61.5268 232.707 61.0682 232.456 60.7055 232.136L61.1535 231.224C61.5482 231.533 61.9748 231.763 62.4335 231.912C62.9028 232.061 63.3882 232.136 63.8895 232.136C64.5295 232.136 65.0095 232.024 65.3295 231.8C65.6602 231.565 65.8255 231.245 65.8255 230.84C65.8255 230.531 65.7188 230.285 65.5055 230.104C65.3028 229.912 64.9668 229.763 64.4975 229.656L63.0095 229.352C62.3268 229.203 61.8148 228.952 61.4735 228.6C61.1322 228.237 60.9615 227.779 60.9615 227.224C60.9615 226.755 61.0842 226.344 61.3295 225.992C61.5748 225.629 61.9322 225.347 62.4015 225.144C62.8708 224.931 63.4202 224.824 64.0495 224.824C64.6362 224.824 65.1748 224.915 65.6655 225.096C66.1668 225.267 66.5828 225.517 66.9135 225.848L66.4495 226.744C66.1295 226.435 65.7615 226.205 65.3455 226.056C64.9402 225.896 64.5188 225.816 64.0815 225.816C63.4522 225.816 62.9775 225.944 62.6575 226.2C62.3482 226.445 62.1935 226.771 62.1935 227.176C62.1935 227.485 62.2895 227.741 62.4815 227.944C62.6842 228.136 62.9935 228.28 63.4095 228.376L64.8975 228.68C65.6228 228.84 66.1615 229.091 66.5135 229.432C66.8762 229.763 67.0575 230.211 67.0575 230.776C67.0575 231.256 66.9242 231.677 66.6575 232.04C66.3908 232.392 66.0175 232.664 65.5375 232.856C65.0682 233.048 64.5135 233.144 63.8735 233.144ZM71.811 233.144C71.171 233.144 70.5737 233.059 70.019 232.888C69.4643 232.707 69.0057 232.456 68.643 232.136L69.091 231.224C69.4857 231.533 69.9123 231.763 70.371 231.912C70.8403 232.061 71.3257 232.136 71.827 232.136C72.467 232.136 72.947 232.024 73.267 231.8C73.5977 231.565 73.763 231.245 73.763 230.84C73.763 230.531 73.6563 230.285 73.443 230.104C73.2403 229.912 72.9043 229.763 72.435 229.656L70.947 229.352C70.2643 229.203 69.7523 228.952 69.411 228.6C69.0697 228.237 68.899 227.779 68.899 227.224C68.899 226.755 69.0217 226.344 69.267 225.992C69.5123 225.629 69.8697 225.347 70.339 225.144C70.8083 224.931 71.3577 224.824 71.987 224.824C72.5737 224.824 73.1123 224.915 73.603 225.096C74.1043 225.267 74.5203 225.517 74.851 225.848L74.387 226.744C74.067 226.435 73.699 226.205 73.283 226.056C72.8777 225.896 72.4563 225.816 72.019 225.816C71.3897 225.816 70.915 225.944 70.595 226.2C70.2857 226.445 70.131 226.771 70.131 227.176C70.131 227.485 70.227 227.741 70.419 227.944C70.6217 228.136 70.931 228.28 71.347 228.376L72.835 228.68C73.5603 228.84 74.099 229.091 74.451 229.432C74.8137 229.763 74.995 230.211 74.995 230.776C74.995 231.256 74.8617 231.677 74.595 232.04C74.3283 232.392 73.955 232.664 73.475 232.856C73.0057 233.048 72.451 233.144 71.811 233.144ZM77.0765 233V224.968H78.3725V233H77.0765ZM76.9165 223.144V221.688H78.5165V223.144H76.9165ZM84.185 233.144C83.417 233.144 82.745 232.979 82.169 232.648C81.6037 232.307 81.1663 231.827 80.857 231.208C80.5477 230.579 80.393 229.837 80.393 228.984C80.393 228.12 80.5477 227.379 80.857 226.76C81.1663 226.141 81.6037 225.667 82.169 225.336C82.745 224.995 83.417 224.824 84.185 224.824C84.9637 224.824 85.6357 224.995 86.201 225.336C86.777 225.667 87.2197 226.141 87.529 226.76C87.849 227.379 88.009 228.12 88.009 228.984C88.009 229.837 87.849 230.579 87.529 231.208C87.2197 231.827 86.777 232.307 86.201 232.648C85.6357 232.979 84.9637 233.144 84.185 233.144ZM84.185 232.088C84.953 232.088 85.561 231.827 86.009 231.304C86.457 230.771 86.681 229.997 86.681 228.984C86.681 227.96 86.4517 227.187 85.993 226.664C85.545 226.131 84.9423 225.864 84.185 225.864C83.4277 225.864 82.825 226.131 82.377 226.664C81.929 227.187 81.705 227.96 81.705 228.984C81.705 229.997 81.929 230.771 82.377 231.304C82.825 231.827 83.4277 232.088 84.185 232.088ZM90.0296 233V226.824C90.0296 226.525 90.0136 226.221 89.9816 225.912C89.9603 225.592 89.9336 225.277 89.9016 224.968H91.1496L91.3096 226.728H91.1176C91.3523 226.109 91.7256 225.64 92.2376 225.32C92.7603 224.989 93.363 224.824 94.0456 224.824C94.995 224.824 95.7096 225.08 96.1896 225.592C96.6803 226.093 96.9256 226.888 96.9256 227.976V233H95.6296V228.056C95.6296 227.299 95.475 226.749 95.1656 226.408C94.867 226.056 94.3976 225.88 93.7576 225.88C93.011 225.88 92.419 226.109 91.9816 226.568C91.5443 227.027 91.3256 227.64 91.3256 228.408V233H90.0296ZM102.461 233.144C101.746 233.144 101.122 232.979 100.589 232.648C100.055 232.307 99.6393 231.827 99.3406 231.208C99.0526 230.589 98.9086 229.848 98.9086 228.984C98.9086 228.109 99.0526 227.363 99.3406 226.744C99.6393 226.125 100.055 225.651 100.589 225.32C101.122 224.989 101.746 224.824 102.461 224.824C103.186 224.824 103.81 225.011 104.333 225.384C104.866 225.747 105.218 226.243 105.389 226.872H105.197L105.373 224.968H106.621C106.589 225.277 106.557 225.592 106.525 225.912C106.503 226.221 106.493 226.525 106.493 226.824V233H105.197V231.112H105.373C105.202 231.741 104.85 232.237 104.317 232.6C103.783 232.963 103.165 233.144 102.461 233.144ZM102.717 232.088C103.485 232.088 104.093 231.827 104.541 231.304C104.989 230.771 105.213 229.997 105.213 228.984C105.213 227.96 104.989 227.187 104.541 226.664C104.093 226.131 103.485 225.864 102.717 225.864C101.959 225.864 101.351 226.131 100.893 226.664C100.445 227.187 100.221 227.96 100.221 228.984C100.221 229.997 100.445 230.771 100.893 231.304C101.351 231.827 101.959 232.088 102.717 232.088ZM108.998 233V221.224H110.294V233H108.998ZM116.007 233L120.983 221.72H122.135L127.191 233H125.815L124.407 229.784L124.999 230.12H118.103L118.743 229.784L117.367 233H116.007ZM121.543 223.24L118.951 229.32L118.567 229.032H124.519L124.231 229.32L121.575 223.24H121.543ZM128.748 236.456V226.824C128.748 226.525 128.732 226.221 128.7 225.912C128.679 225.592 128.652 225.277 128.62 224.968H129.868L130.044 226.872H129.852C130.023 226.243 130.37 225.747 130.892 225.384C131.415 225.011 132.039 224.824 132.764 224.824C133.49 224.824 134.114 224.989 134.636 225.32C135.17 225.651 135.586 226.125 135.884 226.744C136.183 227.363 136.332 228.109 136.332 228.984C136.332 229.848 136.183 230.589 135.884 231.208C135.596 231.827 135.186 232.307 134.652 232.648C134.119 232.979 133.49 233.144 132.764 233.144C132.05 233.144 131.431 232.963 130.908 232.6C130.386 232.237 130.039 231.741 129.868 231.112H130.044V236.456H128.748ZM132.508 232.088C133.276 232.088 133.884 231.827 134.332 231.304C134.791 230.771 135.02 229.997 135.02 228.984C135.02 227.96 134.791 227.187 134.332 226.664C133.884 226.131 133.276 225.864 132.508 225.864C131.751 225.864 131.143 226.131 130.684 226.664C130.236 227.187 130.012 227.96 130.012 228.984C130.012 229.997 130.236 230.771 130.684 231.304C131.143 231.827 131.751 232.088 132.508 232.088ZM138.342 236.456V226.824C138.342 226.525 138.326 226.221 138.294 225.912C138.273 225.592 138.246 225.277 138.214 224.968H139.462L139.638 226.872H139.446C139.617 226.243 139.963 225.747 140.486 225.384C141.009 225.011 141.633 224.824 142.358 224.824C143.083 224.824 143.707 224.989 144.23 225.32C144.763 225.651 145.179 226.125 145.478 226.744C145.777 227.363 145.926 228.109 145.926 228.984C145.926 229.848 145.777 230.589 145.478 231.208C145.19 231.827 144.779 232.307 144.246 232.648C143.713 232.979 143.083 233.144 142.358 233.144C141.643 233.144 141.025 232.963 140.502 232.6C139.979 232.237 139.633 231.741 139.462 231.112H139.638V236.456H138.342ZM142.102 232.088C142.87 232.088 143.478 231.827 143.926 231.304C144.385 230.771 144.614 229.997 144.614 228.984C144.614 227.96 144.385 227.187 143.926 226.664C143.478 226.131 142.87 225.864 142.102 225.864C141.345 225.864 140.737 226.131 140.278 226.664C139.83 227.187 139.606 227.96 139.606 228.984C139.606 229.997 139.83 230.771 140.278 231.304C140.737 231.827 141.345 232.088 142.102 232.088ZM152.524 233V225.976H150.956V224.968H152.876L152.524 225.304V223.96C152.524 223.053 152.753 222.36 153.212 221.88C153.67 221.4 154.326 221.16 155.18 221.16C155.393 221.16 155.612 221.181 155.836 221.224C156.07 221.256 156.262 221.304 156.412 221.368V222.44C156.284 222.387 156.124 222.344 155.932 222.312C155.75 222.269 155.564 222.248 155.372 222.248C155.041 222.248 154.758 222.317 154.524 222.456C154.289 222.584 154.113 222.781 153.996 223.048C153.878 223.315 153.82 223.656 153.82 224.072V225.24L153.612 224.968H156.06V225.976H153.82V233H152.524ZM160.591 233.144C159.823 233.144 159.151 232.979 158.575 232.648C158.01 232.307 157.573 231.827 157.263 231.208C156.954 230.579 156.799 229.837 156.799 228.984C156.799 228.12 156.954 227.379 157.263 226.76C157.573 226.141 158.01 225.667 158.575 225.336C159.151 224.995 159.823 224.824 160.591 224.824C161.37 224.824 162.042 224.995 162.607 225.336C163.183 225.667 163.626 226.141 163.935 226.76C164.255 227.379 164.415 228.12 164.415 228.984C164.415 229.837 164.255 230.579 163.935 231.208C163.626 231.827 163.183 232.307 162.607 232.648C162.042 232.979 161.37 233.144 160.591 233.144ZM160.591 232.088C161.359 232.088 161.967 231.827 162.415 231.304C162.863 230.771 163.087 229.997 163.087 228.984C163.087 227.96 162.858 227.187 162.399 226.664C161.951 226.131 161.349 225.864 160.591 225.864C159.834 225.864 159.231 226.131 158.783 226.664C158.335 227.187 158.111 227.96 158.111 228.984C158.111 229.997 158.335 230.771 158.783 231.304C159.231 231.827 159.834 232.088 160.591 232.088ZM166.404 233V226.904C166.404 226.584 166.393 226.259 166.372 225.928C166.361 225.597 166.34 225.277 166.308 224.968H167.556L167.716 226.92L167.492 226.936C167.599 226.456 167.785 226.061 168.052 225.752C168.319 225.443 168.633 225.213 168.996 225.064C169.359 224.904 169.737 224.824 170.132 224.824C170.292 224.824 170.431 224.829 170.548 224.84C170.676 224.851 170.793 224.877 170.9 224.92L170.884 226.072C170.724 226.019 170.575 225.987 170.436 225.976C170.308 225.955 170.159 225.944 169.988 225.944C169.519 225.944 169.108 226.056 168.756 226.28C168.415 226.504 168.153 226.792 167.972 227.144C167.801 227.496 167.716 227.869 167.716 228.264V233H166.404ZM176.1 236.632L175.796 235.56C176.298 235.443 176.714 235.304 177.044 235.144C177.386 234.995 177.668 234.792 177.892 234.536C178.116 234.28 178.308 233.96 178.468 233.576L178.884 232.632L178.852 233.176L175.348 224.968H176.756L179.652 232.024H179.236L182.1 224.968H183.46L179.748 233.672C179.535 234.184 179.3 234.611 179.044 234.952C178.788 235.304 178.511 235.587 178.212 235.8C177.924 236.024 177.604 236.2 177.252 236.328C176.9 236.456 176.516 236.557 176.1 236.632ZM188.107 233.144C187.339 233.144 186.667 232.979 186.091 232.648C185.526 232.307 185.088 231.827 184.779 231.208C184.47 230.579 184.315 229.837 184.315 228.984C184.315 228.12 184.47 227.379 184.779 226.76C185.088 226.141 185.526 225.667 186.091 225.336C186.667 224.995 187.339 224.824 188.107 224.824C188.886 224.824 189.558 224.995 190.123 225.336C190.699 225.667 191.142 226.141 191.451 226.76C191.771 227.379 191.931 228.12 191.931 228.984C191.931 229.837 191.771 230.579 191.451 231.208C191.142 231.827 190.699 232.307 190.123 232.648C189.558 232.979 188.886 233.144 188.107 233.144ZM188.107 232.088C188.875 232.088 189.483 231.827 189.931 231.304C190.379 230.771 190.603 229.997 190.603 228.984C190.603 227.96 190.374 227.187 189.915 226.664C189.467 226.131 188.864 225.864 188.107 225.864C187.35 225.864 186.747 226.131 186.299 226.664C185.851 227.187 185.627 227.96 185.627 228.984C185.627 229.997 185.851 230.771 186.299 231.304C186.747 231.827 187.35 232.088 188.107 232.088ZM196.784 233.144C195.834 233.144 195.114 232.883 194.624 232.36C194.144 231.837 193.904 231.037 193.904 229.96V224.968H195.2V229.928C195.2 230.664 195.349 231.208 195.648 231.56C195.946 231.901 196.41 232.072 197.04 232.072C197.744 232.072 198.309 231.843 198.736 231.384C199.162 230.925 199.376 230.312 199.376 229.544V224.968H200.672V233H199.408V231.192H199.616C199.392 231.811 199.029 232.291 198.528 232.632C198.037 232.973 197.456 233.144 196.784 233.144ZM203.154 233V226.904C203.154 226.584 203.143 226.259 203.122 225.928C203.111 225.597 203.09 225.277 203.058 224.968H204.306L204.466 226.92L204.242 226.936C204.349 226.456 204.535 226.061 204.802 225.752C205.069 225.443 205.383 225.213 205.746 225.064C206.109 224.904 206.487 224.824 206.882 224.824C207.042 224.824 207.181 224.829 207.298 224.84C207.426 224.851 207.543 224.877 207.65 224.92L207.634 226.072C207.474 226.019 207.325 225.987 207.186 225.976C207.058 225.955 206.909 225.944 206.738 225.944C206.269 225.944 205.858 226.056 205.506 226.28C205.165 226.504 204.903 226.792 204.722 227.144C204.551 227.496 204.466 227.869 204.466 228.264V233H203.154ZM25.832 253.144C24.5733 253.144 23.5813 252.781 22.856 252.056C22.1307 251.32 21.768 250.301 21.768 249C21.768 248.157 21.928 247.427 22.248 246.808C22.568 246.179 23.016 245.693 23.592 245.352C24.168 245 24.8293 244.824 25.576 244.824C26.312 244.824 26.9307 244.979 27.432 245.288C27.9333 245.597 28.3173 246.04 28.584 246.616C28.8507 247.181 28.984 247.853 28.984 248.632V249.112H22.76V248.296H28.136L27.864 248.504C27.864 247.651 27.672 246.984 27.288 246.504C26.904 246.024 26.3333 245.784 25.576 245.784C24.776 245.784 24.152 246.067 23.704 246.632C23.256 247.187 23.032 247.939 23.032 248.888V249.032C23.032 250.035 23.2773 250.797 23.768 251.32C24.2693 251.832 24.968 252.088 25.864 252.088C26.344 252.088 26.792 252.019 27.208 251.88C27.6347 251.731 28.04 251.491 28.424 251.16L28.872 252.072C28.52 252.413 28.072 252.68 27.528 252.872C26.9947 253.053 26.4293 253.144 25.832 253.144ZM36.0231 253.144C34.8925 253.144 33.9325 252.909 33.1431 252.44C32.3538 251.971 31.7458 251.304 31.3191 250.44C30.9031 249.576 30.6951 248.547 30.6951 247.352C30.6951 246.157 30.9031 245.133 31.3191 244.28C31.7458 243.416 32.3538 242.749 33.1431 242.28C33.9325 241.811 34.8925 241.576 36.0231 241.576C36.8231 241.576 37.5378 241.699 38.1671 241.944C38.7965 242.189 39.3458 242.547 39.8151 243.016L39.3191 244.072C38.8071 243.624 38.3005 243.299 37.7991 243.096C37.2978 242.883 36.7111 242.776 36.0391 242.776C34.7485 242.776 33.7671 243.176 33.0951 243.976C32.4231 244.776 32.0871 245.901 32.0871 247.352C32.0871 248.803 32.4231 249.933 33.0951 250.744C33.7671 251.544 34.7485 251.944 36.0391 251.944C36.7111 251.944 37.2978 251.843 37.7991 251.64C38.3005 251.427 38.8071 251.091 39.3191 250.632L39.8151 251.704C39.3458 252.163 38.7965 252.52 38.1671 252.776C37.5378 253.021 36.8231 253.144 36.0231 253.144ZM44.6381 253.144C43.8701 253.144 43.1981 252.979 42.6221 252.648C42.0568 252.307 41.6195 251.827 41.3101 251.208C41.0008 250.579 40.8461 249.837 40.8461 248.984C40.8461 248.12 41.0008 247.379 41.3101 246.76C41.6195 246.141 42.0568 245.667 42.6221 245.336C43.1981 244.995 43.8701 244.824 44.6381 244.824C45.4168 244.824 46.0888 244.995 46.6541 245.336C47.2301 245.667 47.6728 246.141 47.9821 246.76C48.3021 247.379 48.4621 248.12 48.4621 248.984C48.4621 249.837 48.3021 250.579 47.9821 251.208C47.6728 251.827 47.2301 252.307 46.6541 252.648C46.0888 252.979 45.4168 253.144 44.6381 253.144ZM44.6381 252.088C45.4061 252.088 46.0141 251.827 46.4621 251.304C46.9101 250.771 47.1341 249.997 47.1341 248.984C47.1341 247.96 46.9048 247.187 46.4461 246.664C45.9981 246.131 45.3955 245.864 44.6381 245.864C43.8808 245.864 43.2781 246.131 42.8301 246.664C42.3821 247.187 42.1581 247.96 42.1581 248.984C42.1581 249.997 42.3821 250.771 42.8301 251.304C43.2781 251.827 43.8808 252.088 44.6381 252.088ZM50.4828 253V246.824C50.4828 246.525 50.4668 246.221 50.4348 245.912C50.4134 245.592 50.3868 245.277 50.3548 244.968H51.6028L51.7628 246.728H51.5707C51.7841 246.12 52.1201 245.651 52.5788 245.32C53.0481 244.989 53.6134 244.824 54.2748 244.824C54.9468 244.824 55.4908 244.984 55.9068 245.304C56.3334 245.624 56.6214 246.12 56.7708 246.792H56.5308C56.7334 246.184 57.0908 245.704 57.6028 245.352C58.1148 245 58.7121 244.824 59.3948 244.824C60.2801 244.824 60.9468 245.08 61.3948 245.592C61.8428 246.093 62.0668 246.888 62.0668 247.976V253H60.7708V248.056C60.7708 247.299 60.6374 246.749 60.3708 246.408C60.1041 246.056 59.6774 245.88 59.0908 245.88C58.4188 245.88 57.8854 246.115 57.4908 246.584C57.1068 247.043 56.9148 247.661 56.9148 248.44V253H55.6188V248.056C55.6188 247.299 55.4854 246.749 55.2188 246.408C54.9521 246.056 54.5254 245.88 53.9388 245.88C53.2668 245.88 52.7388 246.115 52.3548 246.584C51.9708 247.043 51.7788 247.661 51.7788 248.44V253H50.4828ZM64.5296 253V246.824C64.5296 246.525 64.5136 246.221 64.4816 245.912C64.4603 245.592 64.4336 245.277 64.4016 244.968H65.6496L65.8096 246.728H65.6176C65.831 246.12 66.167 245.651 66.6256 245.32C67.095 244.989 67.6603 244.824 68.3216 244.824C68.9936 244.824 69.5376 244.984 69.9536 245.304C70.3803 245.624 70.6683 246.12 70.8176 246.792H70.5776C70.7803 246.184 71.1376 245.704 71.6496 245.352C72.1616 245 72.759 244.824 73.4416 244.824C74.327 244.824 74.9936 245.08 75.4416 245.592C75.8896 246.093 76.1136 246.888 76.1136 247.976V253H74.8176V248.056C74.8176 247.299 74.6843 246.749 74.4176 246.408C74.151 246.056 73.7243 245.88 73.1376 245.88C72.4656 245.88 71.9323 246.115 71.5376 246.584C71.1536 247.043 70.9616 247.661 70.9616 248.44V253H69.6656V248.056C69.6656 247.299 69.5323 246.749 69.2656 246.408C68.999 246.056 68.5723 245.88 67.9856 245.88C67.3136 245.88 66.7856 246.115 66.4016 246.584C66.0176 247.043 65.8256 247.661 65.8256 248.44V253H64.5296ZM82.1445 253.144C80.8858 253.144 79.8938 252.781 79.1685 252.056C78.4432 251.32 78.0805 250.301 78.0805 249C78.0805 248.157 78.2405 247.427 78.5605 246.808C78.8805 246.179 79.3285 245.693 79.9045 245.352C80.4805 245 81.1418 244.824 81.8885 244.824C82.6245 244.824 83.2432 244.979 83.7445 245.288C84.2458 245.597 84.6298 246.04 84.8965 246.616C85.1632 247.181 85.2965 247.853 85.2965 248.632V249.112H79.0725V248.296H84.4485L84.1765 248.504C84.1765 247.651 83.9845 246.984 83.6005 246.504C83.2165 246.024 82.6458 245.784 81.8885 245.784C81.0885 245.784 80.4645 246.067 80.0165 246.632C79.5685 247.187 79.3445 247.939 79.3445 248.888V249.032C79.3445 250.035 79.5898 250.797 80.0805 251.32C80.5818 251.832 81.2805 252.088 82.1765 252.088C82.6565 252.088 83.1045 252.019 83.5205 251.88C83.9472 251.731 84.3525 251.491 84.7365 251.16L85.1845 252.072C84.8325 252.413 84.3845 252.68 83.8405 252.872C83.3072 253.053 82.7418 253.144 82.1445 253.144ZM87.2476 253V246.904C87.2476 246.584 87.237 246.259 87.2156 245.928C87.205 245.597 87.1836 245.277 87.1516 244.968H88.3996L88.5596 246.92L88.3356 246.936C88.4423 246.456 88.629 246.061 88.8956 245.752C89.1623 245.443 89.477 245.213 89.8396 245.064C90.2023 244.904 90.581 244.824 90.9756 244.824C91.1356 244.824 91.2743 244.829 91.3916 244.84C91.5196 244.851 91.637 244.877 91.7436 244.92L91.7276 246.072C91.5676 246.019 91.4183 245.987 91.2796 245.976C91.1516 245.955 91.0023 245.944 90.8316 245.944C90.3623 245.944 89.9516 246.056 89.5996 246.28C89.2583 246.504 88.997 246.792 88.8156 247.144C88.645 247.496 88.5596 247.869 88.5596 248.264V253H87.2476ZM96.3744 253.144C95.585 253.144 94.897 252.973 94.3104 252.632C93.7344 252.291 93.2864 251.805 92.9664 251.176C92.657 250.547 92.5024 249.8 92.5024 248.936C92.5024 248.061 92.6624 247.32 92.9824 246.712C93.3024 246.093 93.7504 245.624 94.3264 245.304C94.913 244.984 95.5957 244.824 96.3744 244.824C96.8864 244.824 97.3824 244.915 97.8624 245.096C98.353 245.277 98.7584 245.533 99.0784 245.864L98.6144 246.792C98.2944 246.483 97.9424 246.253 97.5584 246.104C97.185 245.955 96.817 245.88 96.4544 245.88C95.6224 245.88 94.977 246.141 94.5184 246.664C94.0597 247.187 93.8304 247.949 93.8304 248.952C93.8304 249.944 94.0597 250.712 94.5184 251.256C94.977 251.8 95.6224 252.072 96.4544 252.072C96.8064 252.072 97.169 252.003 97.5424 251.864C97.9264 251.725 98.2837 251.496 98.6144 251.176L99.0784 252.088C98.7477 252.429 98.337 252.691 97.8464 252.872C97.3557 253.053 96.865 253.144 96.3744 253.144ZM104.332 253.144C103.073 253.144 102.081 252.781 101.356 252.056C100.631 251.32 100.268 250.301 100.268 249C100.268 248.157 100.428 247.427 100.748 246.808C101.068 246.179 101.516 245.693 102.092 245.352C102.668 245 103.329 244.824 104.076 244.824C104.812 244.824 105.431 244.979 105.932 245.288C106.433 245.597 106.817 246.04 107.084 246.616C107.351 247.181 107.484 247.853 107.484 248.632V249.112H101.26V248.296H106.636L106.364 248.504C106.364 247.651 106.172 246.984 105.788 246.504C105.404 246.024 104.833 245.784 104.076 245.784C103.276 245.784 102.652 246.067 102.204 246.632C101.756 247.187 101.532 247.939 101.532 248.888V249.032C101.532 250.035 101.777 250.797 102.268 251.32C102.769 251.832 103.468 252.088 104.364 252.088C104.844 252.088 105.292 252.019 105.708 251.88C106.135 251.731 106.54 251.491 106.924 251.16L107.372 252.072C107.02 252.413 106.572 252.68 106.028 252.872C105.495 253.053 104.929 253.144 104.332 253.144ZM117.671 253.144C116.946 253.144 116.322 252.963 115.799 252.6C115.276 252.227 114.924 251.72 114.743 251.08H114.919V253H113.639V241.224H114.935V246.84H114.743C114.924 246.221 115.276 245.731 115.799 245.368C116.322 245.005 116.946 244.824 117.671 244.824C118.396 244.824 119.02 244.995 119.543 245.336C120.076 245.667 120.487 246.141 120.775 246.76C121.074 247.379 121.223 248.12 121.223 248.984C121.223 249.848 121.074 250.589 120.775 251.208C120.476 251.827 120.06 252.307 119.527 252.648C119.004 252.979 118.386 253.144 117.671 253.144ZM117.399 252.088C118.156 252.088 118.764 251.827 119.223 251.304C119.682 250.781 119.911 250.008 119.911 248.984C119.911 247.96 119.682 247.187 119.223 246.664C118.764 246.131 118.156 245.864 117.399 245.864C116.642 245.864 116.034 246.131 115.575 246.664C115.127 247.187 114.903 247.96 114.903 248.984C114.903 249.997 115.127 250.771 115.575 251.304C116.034 251.827 116.642 252.088 117.399 252.088ZM126.065 253.144C125.115 253.144 124.395 252.883 123.905 252.36C123.425 251.837 123.185 251.037 123.185 249.96V244.968H124.481V249.928C124.481 250.664 124.63 251.208 124.929 251.56C125.227 251.901 125.691 252.072 126.321 252.072C127.025 252.072 127.59 251.843 128.017 251.384C128.443 250.925 128.657 250.312 128.657 249.544V244.968H129.953V253H128.689V251.192H128.897C128.673 251.811 128.31 252.291 127.809 252.632C127.318 252.973 126.737 253.144 126.065 253.144ZM135.139 253.144C134.499 253.144 133.902 253.059 133.347 252.888C132.792 252.707 132.334 252.456 131.971 252.136L132.419 251.224C132.814 251.533 133.24 251.763 133.699 251.912C134.168 252.061 134.654 252.136 135.155 252.136C135.795 252.136 136.275 252.024 136.595 251.8C136.926 251.565 137.091 251.245 137.091 250.84C137.091 250.531 136.984 250.285 136.771 250.104C136.568 249.912 136.232 249.763 135.763 249.656L134.275 249.352C133.592 249.203 133.08 248.952 132.739 248.6C132.398 248.237 132.227 247.779 132.227 247.224C132.227 246.755 132.35 246.344 132.595 245.992C132.84 245.629 133.198 245.347 133.667 245.144C134.136 244.931 134.686 244.824 135.315 244.824C135.902 244.824 136.44 244.915 136.931 245.096C137.432 245.267 137.848 245.517 138.179 245.848L137.715 246.744C137.395 246.435 137.027 246.205 136.611 246.056C136.206 245.896 135.784 245.816 135.347 245.816C134.718 245.816 134.243 245.944 133.923 246.2C133.614 246.445 133.459 246.771 133.459 247.176C133.459 247.485 133.555 247.741 133.747 247.944C133.95 248.136 134.259 248.28 134.675 248.376L136.163 248.68C136.888 248.84 137.427 249.091 137.779 249.432C138.142 249.763 138.323 250.211 138.323 250.776C138.323 251.256 138.19 251.677 137.923 252.04C137.656 252.392 137.283 252.664 136.803 252.856C136.334 253.048 135.779 253.144 135.139 253.144ZM140.405 253V244.968H141.701V253H140.405ZM140.245 243.144V241.688H141.845V243.144H140.245ZM144.217 253V246.824C144.217 246.525 144.201 246.221 144.169 245.912C144.148 245.592 144.121 245.277 144.089 244.968H145.337L145.497 246.728H145.305C145.54 246.109 145.913 245.64 146.425 245.32C146.948 244.989 147.55 244.824 148.233 244.824C149.182 244.824 149.897 245.08 150.377 245.592C150.868 246.093 151.113 246.888 151.113 247.976V253H149.817V248.056C149.817 247.299 149.662 246.749 149.353 246.408C149.054 246.056 148.585 245.88 147.945 245.88C147.198 245.88 146.606 246.109 146.169 246.568C145.732 247.027 145.513 247.64 145.513 248.408V253H144.217ZM157.16 253.144C155.901 253.144 154.909 252.781 154.184 252.056C153.459 251.32 153.096 250.301 153.096 249C153.096 248.157 153.256 247.427 153.576 246.808C153.896 246.179 154.344 245.693 154.92 245.352C155.496 245 156.157 244.824 156.904 244.824C157.64 244.824 158.259 244.979 158.76 245.288C159.261 245.597 159.645 246.04 159.912 246.616C160.179 247.181 160.312 247.853 160.312 248.632V249.112H154.088V248.296H159.464L159.192 248.504C159.192 247.651 159 246.984 158.616 246.504C158.232 246.024 157.661 245.784 156.904 245.784C156.104 245.784 155.48 246.067 155.032 246.632C154.584 247.187 154.36 247.939 154.36 248.888V249.032C154.36 250.035 154.605 250.797 155.096 251.32C155.597 251.832 156.296 252.088 157.192 252.088C157.672 252.088 158.12 252.019 158.536 251.88C158.963 251.731 159.368 251.491 159.752 251.16L160.2 252.072C159.848 252.413 159.4 252.68 158.856 252.872C158.323 253.053 157.757 253.144 157.16 253.144ZM164.967 253.144C164.327 253.144 163.73 253.059 163.175 252.888C162.621 252.707 162.162 252.456 161.799 252.136L162.247 251.224C162.642 251.533 163.069 251.763 163.527 251.912C163.997 252.061 164.482 252.136 164.983 252.136C165.623 252.136 166.103 252.024 166.423 251.8C166.754 251.565 166.919 251.245 166.919 250.84C166.919 250.531 166.813 250.285 166.599 250.104C166.397 249.912 166.061 249.763 165.591 249.656L164.103 249.352C163.421 249.203 162.909 248.952 162.567 248.6C162.226 248.237 162.055 247.779 162.055 247.224C162.055 246.755 162.178 246.344 162.423 245.992C162.669 245.629 163.026 245.347 163.495 245.144C163.965 244.931 164.514 244.824 165.143 244.824C165.73 244.824 166.269 244.915 166.759 245.096C167.261 245.267 167.677 245.517 168.007 245.848L167.543 246.744C167.223 246.435 166.855 246.205 166.439 246.056C166.034 245.896 165.613 245.816 165.175 245.816C164.546 245.816 164.071 245.944 163.751 246.2C163.442 246.445 163.287 246.771 163.287 247.176C163.287 247.485 163.383 247.741 163.575 247.944C163.778 248.136 164.087 248.28 164.503 248.376L165.991 248.68C166.717 248.84 167.255 249.091 167.607 249.432C167.97 249.763 168.151 250.211 168.151 250.776C168.151 251.256 168.018 251.677 167.751 252.04C167.485 252.392 167.111 252.664 166.631 252.856C166.162 253.048 165.607 253.144 164.967 253.144ZM172.905 253.144C172.265 253.144 171.667 253.059 171.113 252.888C170.558 252.707 170.099 252.456 169.737 252.136L170.185 251.224C170.579 251.533 171.006 251.763 171.465 251.912C171.934 252.061 172.419 252.136 172.921 252.136C173.561 252.136 174.041 252.024 174.361 251.8C174.691 251.565 174.857 251.245 174.857 250.84C174.857 250.531 174.75 250.285 174.537 250.104C174.334 249.912 173.998 249.763 173.529 249.656L172.041 249.352C171.358 249.203 170.846 248.952 170.505 248.6C170.163 248.237 169.993 247.779 169.993 247.224C169.993 246.755 170.115 246.344 170.361 245.992C170.606 245.629 170.963 245.347 171.433 245.144C171.902 244.931 172.451 244.824 173.081 244.824C173.667 244.824 174.206 244.915 174.697 245.096C175.198 245.267 175.614 245.517 175.945 245.848L175.481 246.744C175.161 246.435 174.793 246.205 174.377 246.056C173.971 245.896 173.55 245.816 173.113 245.816C172.483 245.816 172.009 245.944 171.689 246.2C171.379 246.445 171.225 246.771 171.225 247.176C171.225 247.485 171.321 247.741 171.513 247.944C171.715 248.136 172.025 248.28 172.441 248.376L173.929 248.68C174.654 248.84 175.193 249.091 175.545 249.432C175.907 249.763 176.089 250.211 176.089 250.776C176.089 251.256 175.955 251.677 175.689 252.04C175.422 252.392 175.049 252.664 174.569 252.856C174.099 253.048 173.545 253.144 172.905 253.144Z" fill="white"/>
<line x1="21" y1="209.5" x2="254" y2="209.5" stroke="white"/>
</svg>
