<svg width="199" height="19" viewBox="0 0 199 19" fill="none" xmlns="http://www.w3.org/2000/svg">
<g filter="url(#filter0_d_37_8129)">
<line x1="4" y1="9.25" x2="51.5" y2="9.25" stroke="#8B8C9F" stroke-width="0.5"/>
</g>
<path d="M59.2651 14.1364C58.6742 14.1364 58.1557 13.9957 57.7097 13.7145C57.2665 13.4332 56.9199 13.0398 56.6699 12.5341C56.4228 12.0284 56.2992 11.4375 56.2992 10.7614C56.2992 10.0795 56.4228 9.48437 56.6699 8.97585C56.9199 8.46733 57.2665 8.07244 57.7097 7.79119C58.1557 7.50994 58.6742 7.36932 59.2651 7.36932C59.856 7.36932 60.373 7.50994 60.8162 7.79119C61.2623 8.07244 61.6088 8.46733 61.856 8.97585C62.106 9.48437 62.231 10.0795 62.231 10.7614C62.231 11.4375 62.106 12.0284 61.856 12.5341C61.6088 13.0398 61.2623 13.4332 60.8162 13.7145C60.373 13.9957 59.856 14.1364 59.2651 14.1364ZM59.2651 13.233C59.714 13.233 60.0833 13.1179 60.373 12.8878C60.6628 12.6577 60.8773 12.3551 61.0165 11.9801C61.1557 11.6051 61.2253 11.1989 61.2253 10.7614C61.2253 10.3239 61.1557 9.91619 61.0165 9.53835C60.8773 9.16051 60.6628 8.85511 60.373 8.62216C60.0833 8.3892 59.714 8.27273 59.2651 8.27273C58.8162 8.27273 58.4469 8.3892 58.1571 8.62216C57.8674 8.85511 57.6529 9.16051 57.5137 9.53835C57.3745 9.91619 57.3049 10.3239 57.3049 10.7614C57.3049 11.1989 57.3745 11.6051 57.5137 11.9801C57.6529 12.3551 57.8674 12.6577 58.1571 12.8878C58.4469 13.1179 58.8162 13.233 59.2651 13.233ZM63.7662 14V7.45455H64.7377V8.44318H64.8059C64.9252 8.11932 65.1412 7.85653 65.4537 7.65483C65.7662 7.45312 66.1184 7.35227 66.5105 7.35227C66.5843 7.35227 66.6767 7.35369 66.7875 7.35653C66.8983 7.35937 66.9821 7.36364 67.0389 7.36932V8.39205C67.0048 8.38352 66.9267 8.37074 66.8045 8.35369C66.6852 8.33381 66.5588 8.32386 66.4252 8.32386C66.1071 8.32386 65.823 8.39062 65.573 8.52415C65.3258 8.65483 65.1298 8.83665 64.9849 9.0696C64.8429 9.29972 64.7718 9.5625 64.7718 9.85795V14H63.7662ZM74.2651 14.1364C73.6515 14.1364 73.123 13.9915 72.6799 13.7017C72.2367 13.4119 71.8958 13.0128 71.6571 12.5043C71.4185 11.9957 71.2992 11.4148 71.2992 10.7614C71.2992 10.0966 71.4213 9.50994 71.6657 9.00142C71.9128 8.49006 72.2566 8.09091 72.6969 7.80398C73.1401 7.5142 73.6571 7.36932 74.248 7.36932C74.7083 7.36932 75.123 7.45455 75.4924 7.625C75.8617 7.79545 76.1642 8.03409 76.4 8.34091C76.6358 8.64773 76.7821 9.00568 76.839 9.41477H75.8333C75.7566 9.11648 75.5861 8.85227 75.3219 8.62216C75.0605 8.3892 74.7083 8.27273 74.2651 8.27273C73.873 8.27273 73.5293 8.375 73.2338 8.57955C72.9412 8.78125 72.7125 9.06676 72.5478 9.43608C72.3858 9.80256 72.3049 10.233 72.3049 10.7273C72.3049 11.233 72.3844 11.6733 72.5435 12.0483C72.7054 12.4233 72.9327 12.7145 73.2253 12.9219C73.5208 13.1293 73.8674 13.233 74.2651 13.233C74.5265 13.233 74.7637 13.1875 74.9767 13.0966C75.1898 13.0057 75.3702 12.875 75.5179 12.7045C75.6657 12.5341 75.7708 12.3295 75.8333 12.0909H76.839C76.7821 12.4773 76.6415 12.8253 76.4171 13.1349C76.1955 13.4418 75.9015 13.6861 75.535 13.8679C75.1713 14.0469 74.748 14.1364 74.2651 14.1364ZM80.9682 14.1364C80.3773 14.1364 79.8588 13.9957 79.4128 13.7145C78.9696 13.4332 78.623 13.0398 78.373 12.5341C78.1259 12.0284 78.0023 11.4375 78.0023 10.7614C78.0023 10.0795 78.1259 9.48437 78.373 8.97585C78.623 8.46733 78.9696 8.07244 79.4128 7.79119C79.8588 7.50994 80.3773 7.36932 80.9682 7.36932C81.5591 7.36932 82.0762 7.50994 82.5194 7.79119C82.9654 8.07244 83.312 8.46733 83.5591 8.97585C83.8091 9.48437 83.9341 10.0795 83.9341 10.7614C83.9341 11.4375 83.8091 12.0284 83.5591 12.5341C83.312 13.0398 82.9654 13.4332 82.5194 13.7145C82.0762 13.9957 81.5591 14.1364 80.9682 14.1364ZM80.9682 13.233C81.4171 13.233 81.7864 13.1179 82.0762 12.8878C82.3659 12.6577 82.5804 12.3551 82.7196 11.9801C82.8588 11.6051 82.9284 11.1989 82.9284 10.7614C82.9284 10.3239 82.8588 9.91619 82.7196 9.53835C82.5804 9.16051 82.3659 8.85511 82.0762 8.62216C81.7864 8.3892 81.4171 8.27273 80.9682 8.27273C80.5194 8.27273 80.15 8.3892 79.8603 8.62216C79.5705 8.85511 79.356 9.16051 79.2168 9.53835C79.0776 9.91619 79.008 10.3239 79.008 10.7614C79.008 11.1989 79.0776 11.6051 79.2168 11.9801C79.356 12.3551 79.5705 12.6577 79.8603 12.8878C80.15 13.1179 80.5194 13.233 80.9682 13.233ZM86.475 10.0625V14H85.4693V7.45455H86.4409V8.47727H86.5261C86.6795 8.14489 86.9125 7.87784 87.225 7.67614C87.5375 7.47159 87.9409 7.36932 88.4352 7.36932C88.8784 7.36932 89.2662 7.46023 89.5985 7.64205C89.9309 7.82102 90.1895 8.09375 90.3741 8.46023C90.5588 8.82386 90.6511 9.28409 90.6511 9.84091V14H89.6454V9.90909C89.6454 9.39489 89.5119 8.99432 89.2449 8.70739C88.9778 8.41761 88.6113 8.27273 88.1454 8.27273C87.8244 8.27273 87.5375 8.34233 87.2846 8.48153C87.0346 8.62074 86.8372 8.82386 86.6923 9.09091C86.5474 9.35795 86.475 9.68182 86.475 10.0625ZM95.3354 7.45455V8.30682H91.9434V7.45455H95.3354ZM92.932 5.88636H93.9377V12.125C93.9377 12.4091 93.9789 12.6222 94.0613 12.7642C94.1465 12.9034 94.2544 12.9972 94.3851 13.0455C94.5186 13.0909 94.6593 13.1136 94.807 13.1136C94.9178 13.1136 95.0087 13.108 95.0797 13.0966C95.1507 13.0824 95.2076 13.071 95.2502 13.0625L95.4547 13.9659C95.3865 13.9915 95.2914 14.017 95.1692 14.0426C95.0471 14.071 94.8922 14.0852 94.7047 14.0852C94.4206 14.0852 94.1422 14.0241 93.8695 13.902C93.5996 13.7798 93.3752 13.5938 93.1962 13.3438C93.0201 13.0938 92.932 12.7784 92.932 12.3977V5.88636ZM96.8482 14V7.45455H97.8539V14H96.8482ZM97.3596 6.36364C97.1635 6.36364 96.9945 6.29688 96.8525 6.16335C96.7132 6.02983 96.6436 5.86932 96.6436 5.68182C96.6436 5.49432 96.7132 5.33381 96.8525 5.20028C96.9945 5.06676 97.1635 5 97.3596 5C97.5556 5 97.7232 5.06676 97.8624 5.20028C98.0044 5.33381 98.0755 5.49432 98.0755 5.68182C98.0755 5.86932 98.0044 6.02983 97.8624 6.16335C97.7232 6.29688 97.5556 6.36364 97.3596 6.36364ZM100.702 10.0625V14H99.6958V7.45455H100.667V8.47727H100.753C100.906 8.14489 101.139 7.87784 101.452 7.67614C101.764 7.47159 102.167 7.36932 102.662 7.36932C103.105 7.36932 103.493 7.46023 103.825 7.64205C104.157 7.82102 104.416 8.09375 104.601 8.46023C104.785 8.82386 104.878 9.28409 104.878 9.84091V14H103.872V9.90909C103.872 9.39489 103.738 8.99432 103.471 8.70739C103.204 8.41761 102.838 8.27273 102.372 8.27273C102.051 8.27273 101.764 8.34233 101.511 8.48153C101.261 8.62074 101.064 8.82386 100.919 9.09091C100.774 9.35795 100.702 9.68182 100.702 10.0625ZM110.84 11.3239V7.45455H111.846V14H110.84V12.892H110.772C110.619 13.2244 110.38 13.5071 110.056 13.7401C109.732 13.9702 109.323 14.0852 108.829 14.0852C108.42 14.0852 108.056 13.9957 107.738 13.8168C107.42 13.6349 107.17 13.3622 106.988 12.9986C106.806 12.6321 106.715 12.1705 106.715 11.6136V7.45455H107.721V11.5455C107.721 12.0227 107.855 12.4034 108.122 12.6875C108.392 12.9716 108.735 13.1136 109.153 13.1136C109.403 13.1136 109.657 13.0497 109.916 12.9219C110.177 12.794 110.396 12.598 110.572 12.3338C110.751 12.0696 110.84 11.733 110.84 11.3239ZM116.432 14.1364C115.802 14.1364 115.258 13.9972 114.8 13.7188C114.346 13.4375 113.995 13.0455 113.748 12.5426C113.503 12.0369 113.381 11.4489 113.381 10.7784C113.381 10.108 113.503 9.51705 113.748 9.00568C113.995 8.49148 114.339 8.09091 114.779 7.80398C115.222 7.5142 115.739 7.36932 116.33 7.36932C116.671 7.36932 117.008 7.42614 117.34 7.53977C117.672 7.65341 117.975 7.83807 118.248 8.09375C118.52 8.34659 118.738 8.68182 118.9 9.09943C119.062 9.51705 119.143 10.0312 119.143 10.642V11.0682H114.097V10.1989H118.12C118.12 9.82955 118.046 9.5 117.898 9.21023C117.753 8.92045 117.546 8.69176 117.276 8.52415C117.009 8.35653 116.694 8.27273 116.33 8.27273C115.93 8.27273 115.583 8.37216 115.29 8.57102C115.001 8.76705 114.778 9.02273 114.621 9.33807C114.465 9.65341 114.387 9.99148 114.387 10.3523V10.9318C114.387 11.4261 114.472 11.8452 114.643 12.1889C114.816 12.5298 115.056 12.7898 115.363 12.9688C115.67 13.1449 116.026 13.233 116.432 13.233C116.697 13.233 116.935 13.196 117.148 13.1222C117.364 13.0455 117.55 12.9318 117.706 12.7812C117.863 12.6278 117.983 12.4375 118.069 12.2102L119.04 12.483C118.938 12.8125 118.766 13.1023 118.525 13.3523C118.283 13.5994 117.985 13.7926 117.63 13.9318C117.275 14.0682 116.876 14.1364 116.432 14.1364ZM125.53 14L123.536 7.45455H124.593L126.008 12.4659H126.076L127.474 7.45455H128.547L129.928 12.4489H129.996L131.411 7.45455H132.468L130.474 14H129.485L128.053 8.97159H127.951L126.519 14H125.53ZM133.797 14V7.45455H134.803V14H133.797ZM134.309 6.36364C134.113 6.36364 133.944 6.29688 133.802 6.16335C133.662 6.02983 133.593 5.86932 133.593 5.68182C133.593 5.49432 133.662 5.33381 133.802 5.20028C133.944 5.06676 134.113 5 134.309 5C134.505 5 134.672 5.06676 134.812 5.20028C134.954 5.33381 135.025 5.49432 135.025 5.68182C135.025 5.86932 134.954 6.02983 134.812 6.16335C134.672 6.29688 134.505 6.36364 134.309 6.36364ZM139.492 7.45455V8.30682H136.1V7.45455H139.492ZM137.088 5.88636H138.094V12.125C138.094 12.4091 138.135 12.6222 138.218 12.7642C138.303 12.9034 138.411 12.9972 138.541 13.0455C138.675 13.0909 138.816 13.1136 138.963 13.1136C139.074 13.1136 139.165 13.108 139.236 13.0966C139.307 13.0824 139.364 13.071 139.406 13.0625L139.611 13.9659C139.543 13.9915 139.448 14.017 139.325 14.0426C139.203 14.071 139.048 14.0852 138.861 14.0852C138.577 14.0852 138.298 14.0241 138.026 13.902C137.756 13.7798 137.531 13.5938 137.352 13.3438C137.176 13.0938 137.088 12.7784 137.088 12.3977V5.88636ZM142.151 10.0625V14H141.145V5.27273H142.151V8.47727H142.236C142.389 8.1392 142.619 7.87074 142.926 7.67188C143.236 7.47017 143.648 7.36932 144.162 7.36932C144.608 7.36932 144.999 7.45881 145.334 7.63778C145.669 7.81392 145.929 8.08523 146.114 8.4517C146.301 8.81534 146.395 9.27841 146.395 9.84091V14H145.389V9.90909C145.389 9.3892 145.254 8.98722 144.985 8.70312C144.718 8.41619 144.347 8.27273 143.872 8.27273C143.543 8.27273 143.247 8.34233 142.986 8.48153C142.727 8.62074 142.523 8.82386 142.372 9.09091C142.225 9.35795 142.151 9.68182 142.151 10.0625Z" fill="#32343D"/>
<line x1="151.5" y1="9" x2="199" y2="9" stroke="#8B8C9F"/>
<defs>
<filter id="filter0_d_37_8129" x="0" y="9" width="55.5" height="8.5" filterUnits="userSpaceOnUse" color-interpolation-filters="sRGB">
<feFlood flood-opacity="0" result="BackgroundImageFix"/>
<feColorMatrix in="SourceAlpha" type="matrix" values="0 0 0 0 0 0 0 0 0 0 0 0 0 0 0 0 0 0 127 0" result="hardAlpha"/>
<feOffset dy="4"/>
<feGaussianBlur stdDeviation="2"/>
<feComposite in2="hardAlpha" operator="out"/>
<feColorMatrix type="matrix" values="0 0 0 0 0 0 0 0 0 0 0 0 0 0 0 0 0 0 0.25 0"/>
<feBlend mode="normal" in2="BackgroundImageFix" result="effect1_dropShadow_37_8129"/>
<feBlend mode="normal" in="SourceGraphic" in2="effect1_dropShadow_37_8129" result="shape"/>
</filter>
</defs>
</svg>
