<svg width="320" height="16" viewBox="0 0 320 16" fill="none" xmlns="http://www.w3.org/2000/svg">
<line y1="7.75" x2="110" y2="7.75" stroke="#ADADAD" stroke-width="0.5"/>
<path d="M131.565 8.45C131.565 9.13467 131.457 9.763 131.24 10.335C131.032 10.8983 130.733 11.3923 130.343 11.817C129.953 12.233 129.49 12.558 128.952 12.792C128.424 13.0173 127.843 13.13 127.21 13.13C126.578 13.13 125.993 13.0173 125.455 12.792C124.927 12.558 124.467 12.233 124.077 11.817C123.687 11.3923 123.384 10.8983 123.167 10.335C122.959 9.763 122.855 9.13467 122.855 8.45C122.855 7.76533 122.959 7.14133 123.167 6.578C123.384 6.006 123.687 5.512 124.077 5.096C124.467 4.67133 124.927 4.34633 125.455 4.121C125.993 3.887 126.578 3.77 127.21 3.77C127.843 3.77 128.424 3.887 128.952 4.121C129.49 4.34633 129.953 4.67133 130.343 5.096C130.733 5.512 131.032 6.006 131.24 6.578C131.457 7.14133 131.565 7.76533 131.565 8.45ZM130.733 8.45C130.733 7.67867 130.582 7.00267 130.278 6.422C129.984 5.83267 129.572 5.37333 129.043 5.044C128.515 4.71467 127.904 4.55 127.21 4.55C126.526 4.55 125.915 4.71467 125.377 5.044C124.849 5.37333 124.433 5.83267 124.129 6.422C123.835 7.00267 123.687 7.67867 123.687 8.45C123.687 9.22133 123.835 9.90167 124.129 10.491C124.433 11.0717 124.849 11.5267 125.377 11.856C125.915 12.1853 126.526 12.35 127.21 12.35C127.904 12.35 128.515 12.1853 129.043 11.856C129.572 11.5267 129.984 11.0717 130.278 10.491C130.582 9.90167 130.733 9.22133 130.733 8.45ZM133.602 13C133.48 13 133.385 12.961 133.316 12.883C133.246 12.805 133.212 12.714 133.212 12.61V6.786C133.212 6.682 133.246 6.591 133.316 6.513C133.394 6.435 133.489 6.396 133.602 6.396C133.714 6.396 133.805 6.435 133.875 6.513C133.953 6.591 133.992 6.682 133.992 6.786V8.736L133.797 8.775C133.823 8.47167 133.896 8.17267 134.018 7.878C134.148 7.57467 134.321 7.29733 134.538 7.046C134.754 6.79467 135.01 6.591 135.305 6.435C135.608 6.279 135.946 6.201 136.319 6.201C136.475 6.201 136.626 6.23567 136.774 6.305C136.921 6.36567 136.995 6.46967 136.995 6.617C136.995 6.747 136.96 6.84667 136.891 6.916C136.821 6.98533 136.739 7.02 136.644 7.02C136.566 7.02 136.479 6.99833 136.384 6.955C136.297 6.91167 136.18 6.89 136.033 6.89C135.79 6.89 135.547 6.96367 135.305 7.111C135.062 7.24967 134.841 7.44033 134.642 7.683C134.442 7.92567 134.282 8.19867 134.161 8.502C134.048 8.79667 133.992 9.09567 133.992 9.399V12.61C133.992 12.714 133.953 12.805 133.875 12.883C133.797 12.961 133.706 13 133.602 13ZM142.626 12.61C142.626 12.714 142.587 12.805 142.509 12.883C142.431 12.961 142.34 13 142.236 13C142.124 13 142.028 12.961 141.95 12.883C141.881 12.805 141.846 12.714 141.846 12.61V3.77C141.846 3.666 141.885 3.575 141.963 3.497C142.041 3.419 142.132 3.38 142.236 3.38C142.349 3.38 142.44 3.419 142.509 3.497C142.587 3.575 142.626 3.666 142.626 3.77V12.61ZM150.825 9.672C150.825 10.3307 150.682 10.9243 150.396 11.453C150.11 11.973 149.72 12.3847 149.226 12.688C148.732 12.9827 148.169 13.13 147.536 13.13C146.921 13.13 146.362 12.9827 145.859 12.688C145.365 12.3847 144.971 11.973 144.676 11.453C144.39 10.9243 144.247 10.3307 144.247 9.672C144.247 9.00467 144.39 8.411 144.676 7.891C144.971 7.371 145.365 6.95933 145.859 6.656C146.362 6.35267 146.921 6.201 147.536 6.201C148.169 6.201 148.732 6.35267 149.226 6.656C149.72 6.95933 150.11 7.371 150.396 7.891C150.682 8.411 150.825 9.00467 150.825 9.672ZM150.045 9.672C150.045 9.14333 149.937 8.67533 149.72 8.268C149.504 7.852 149.205 7.527 148.823 7.293C148.451 7.05033 148.022 6.929 147.536 6.929C147.068 6.929 146.644 7.05033 146.262 7.293C145.881 7.527 145.578 7.852 145.352 8.268C145.136 8.67533 145.027 9.14333 145.027 9.672C145.027 10.2007 145.136 10.6687 145.352 11.076C145.578 11.4833 145.881 11.8083 146.262 12.051C146.644 12.285 147.068 12.402 147.536 12.402C148.022 12.402 148.451 12.285 148.823 12.051C149.205 11.8083 149.504 11.4833 149.72 11.076C149.937 10.6687 150.045 10.2007 150.045 9.672ZM155.252 6.201C155.642 6.201 156.002 6.27033 156.331 6.409C156.66 6.539 156.946 6.71233 157.189 6.929C157.44 7.137 157.635 7.36233 157.774 7.605C157.913 7.839 157.982 8.06433 157.982 8.281L157.761 7.969V6.76C157.761 6.64733 157.796 6.552 157.865 6.474C157.943 6.396 158.038 6.357 158.151 6.357C158.272 6.357 158.368 6.396 158.437 6.474C158.506 6.552 158.541 6.64733 158.541 6.76V12.389C158.541 13.0823 158.398 13.6673 158.112 14.144C157.826 14.6207 157.436 14.9803 156.942 15.223C156.457 15.4743 155.902 15.6 155.278 15.6C154.975 15.6 154.654 15.561 154.316 15.483C153.987 15.405 153.701 15.3053 153.458 15.184C153.224 15.0627 153.094 14.937 153.068 14.807C152.999 14.729 152.964 14.651 152.964 14.573C152.973 14.5037 153.012 14.443 153.081 14.391C153.168 14.3303 153.259 14.3217 153.354 14.365C153.449 14.417 153.592 14.482 153.783 14.56C153.87 14.586 153.987 14.625 154.134 14.677C154.281 14.729 154.455 14.7723 154.654 14.807C154.862 14.8503 155.079 14.872 155.304 14.872C156.084 14.872 156.686 14.6467 157.111 14.196C157.544 13.754 157.761 13.169 157.761 12.441V11.193L157.904 11.232C157.826 11.544 157.696 11.817 157.514 12.051C157.341 12.285 157.133 12.4843 156.89 12.649C156.647 12.805 156.383 12.922 156.097 13C155.82 13.0867 155.542 13.13 155.265 13.13C154.667 13.13 154.13 12.9783 153.653 12.675C153.176 12.3717 152.795 11.96 152.509 11.44C152.232 10.92 152.093 10.3263 152.093 9.659C152.093 9.00033 152.232 8.411 152.509 7.891C152.795 7.36233 153.172 6.95067 153.64 6.656C154.117 6.35267 154.654 6.201 155.252 6.201ZM155.343 6.929C154.866 6.929 154.437 7.05033 154.056 7.293C153.683 7.527 153.389 7.852 153.172 8.268C152.964 8.67533 152.86 9.139 152.86 9.659C152.86 10.179 152.964 10.647 153.172 11.063C153.389 11.479 153.683 11.8083 154.056 12.051C154.437 12.285 154.866 12.402 155.343 12.402C155.82 12.402 156.244 12.285 156.617 12.051C156.99 11.817 157.284 11.4963 157.501 11.089C157.718 10.673 157.826 10.1963 157.826 9.659C157.826 9.12167 157.718 8.64933 157.501 8.242C157.284 7.826 156.99 7.50533 156.617 7.28C156.244 7.046 155.82 6.929 155.343 6.929ZM161.349 12.61C161.349 12.714 161.31 12.805 161.232 12.883C161.154 12.961 161.063 13 160.959 13C160.847 13 160.751 12.961 160.673 12.883C160.604 12.805 160.569 12.714 160.569 12.61V6.63C160.569 6.526 160.604 6.435 160.673 6.357C160.751 6.279 160.847 6.24 160.959 6.24C161.072 6.24 161.163 6.279 161.232 6.357C161.31 6.435 161.349 6.526 161.349 6.63V12.61ZM160.959 5.369C160.777 5.369 160.639 5.33 160.543 5.252C160.457 5.16533 160.413 5.044 160.413 4.888V4.758C160.413 4.602 160.461 4.485 160.556 4.407C160.66 4.32033 160.799 4.277 160.972 4.277C161.137 4.277 161.263 4.32033 161.349 4.407C161.445 4.485 161.492 4.602 161.492 4.758V4.888C161.492 5.044 161.445 5.16533 161.349 5.252C161.263 5.33 161.133 5.369 160.959 5.369ZM166.509 6.201C167.081 6.201 167.536 6.318 167.874 6.552C168.22 6.77733 168.467 7.08933 168.615 7.488C168.771 7.878 168.849 8.31133 168.849 8.788V12.61C168.849 12.714 168.81 12.805 168.732 12.883C168.654 12.961 168.563 13 168.459 13C168.337 13 168.242 12.961 168.173 12.883C168.103 12.805 168.069 12.714 168.069 12.61V8.827C168.069 8.48033 168.012 8.164 167.9 7.878C167.787 7.592 167.601 7.36233 167.341 7.189C167.089 7.01567 166.756 6.929 166.34 6.929C165.967 6.929 165.612 7.01567 165.274 7.189C164.944 7.36233 164.676 7.592 164.468 7.878C164.26 8.164 164.156 8.48033 164.156 8.827V12.61C164.156 12.714 164.117 12.805 164.039 12.883C163.961 12.961 163.87 13 163.766 13C163.644 13 163.549 12.961 163.48 12.883C163.41 12.805 163.376 12.714 163.376 12.61V6.786C163.376 6.682 163.41 6.591 163.48 6.513C163.558 6.435 163.653 6.396 163.766 6.396C163.878 6.396 163.969 6.435 164.039 6.513C164.117 6.591 164.156 6.682 164.156 6.786V7.878L163.857 8.346C163.874 8.06867 163.961 7.80433 164.117 7.553C164.281 7.293 164.489 7.06333 164.741 6.864C164.992 6.656 165.269 6.49567 165.573 6.383C165.885 6.26167 166.197 6.201 166.509 6.201ZM182.337 6.214C182.432 6.214 182.519 6.24867 182.597 6.318C182.684 6.38733 182.727 6.48267 182.727 6.604C182.727 6.63 182.723 6.66033 182.714 6.695C182.705 6.72967 182.697 6.75567 182.688 6.773L180.686 12.753C180.651 12.831 180.595 12.896 180.517 12.948C180.448 12.9913 180.374 13.0087 180.296 13C180.14 12.9913 180.023 12.909 179.945 12.753L178.112 8.437L178.346 8.489L176.721 12.753C176.652 12.909 176.535 12.9913 176.37 13C176.292 13.0087 176.214 12.9913 176.136 12.948C176.058 12.896 176.006 12.831 175.98 12.753L173.926 6.773C173.9 6.71233 173.887 6.656 173.887 6.604C173.887 6.49133 173.922 6.40033 173.991 6.331C174.069 6.253 174.169 6.214 174.29 6.214C174.368 6.214 174.437 6.23567 174.498 6.279C174.567 6.32233 174.615 6.38733 174.641 6.474L176.487 12.012L176.24 11.999L177.917 7.774C177.986 7.60933 178.108 7.527 178.281 7.527C178.368 7.527 178.441 7.54867 178.502 7.592C178.563 7.63533 178.61 7.696 178.645 7.774L180.426 12.012L180.14 12.025L181.973 6.474C182.025 6.30067 182.146 6.214 182.337 6.214ZM184.975 12.61C184.975 12.714 184.936 12.805 184.858 12.883C184.78 12.961 184.689 13 184.585 13C184.473 13 184.377 12.961 184.299 12.883C184.23 12.805 184.195 12.714 184.195 12.61V6.63C184.195 6.526 184.23 6.435 184.299 6.357C184.377 6.279 184.473 6.24 184.585 6.24C184.698 6.24 184.789 6.279 184.858 6.357C184.936 6.435 184.975 6.526 184.975 6.63V12.61ZM184.585 5.369C184.403 5.369 184.265 5.33 184.169 5.252C184.083 5.16533 184.039 5.044 184.039 4.888V4.758C184.039 4.602 184.087 4.485 184.182 4.407C184.286 4.32033 184.425 4.277 184.598 4.277C184.763 4.277 184.889 4.32033 184.975 4.407C185.071 4.485 185.118 4.602 185.118 4.758V4.888C185.118 5.044 185.071 5.16533 184.975 5.252C184.889 5.33 184.759 5.369 184.585 5.369ZM186.573 6.383H189.602C189.706 6.383 189.792 6.422 189.862 6.5C189.931 6.56933 189.966 6.656 189.966 6.76C189.966 6.85533 189.931 6.93767 189.862 7.007C189.792 7.07633 189.706 7.111 189.602 7.111H186.573C186.469 7.111 186.378 7.07633 186.3 7.007C186.23 6.929 186.196 6.84233 186.196 6.747C186.196 6.643 186.23 6.55633 186.3 6.487C186.378 6.41767 186.469 6.383 186.573 6.383ZM187.912 4.55C188.024 4.55 188.115 4.589 188.185 4.667C188.263 4.745 188.302 4.836 188.302 4.94V11.466C188.302 11.7087 188.332 11.8907 188.393 12.012C188.462 12.1333 188.549 12.2157 188.653 12.259C188.757 12.2937 188.861 12.311 188.965 12.311C189.034 12.311 189.095 12.3023 189.147 12.285C189.207 12.259 189.272 12.246 189.342 12.246C189.42 12.246 189.485 12.2763 189.537 12.337C189.597 12.3977 189.628 12.4757 189.628 12.571C189.628 12.6923 189.558 12.7963 189.42 12.883C189.281 12.961 189.116 13 188.926 13C188.848 13 188.731 12.9957 188.575 12.987C188.419 12.9697 188.258 12.922 188.094 12.844C187.929 12.7573 187.79 12.61 187.678 12.402C187.574 12.194 187.522 11.895 187.522 11.505V4.94C187.522 4.836 187.556 4.745 187.626 4.667C187.704 4.589 187.799 4.55 187.912 4.55ZM194.436 6.305C194.982 6.305 195.424 6.422 195.762 6.656C196.1 6.89 196.347 7.20633 196.503 7.605C196.668 8.00367 196.75 8.44567 196.75 8.931V12.61C196.75 12.714 196.711 12.805 196.633 12.883C196.555 12.961 196.464 13 196.36 13C196.239 13 196.143 12.961 196.074 12.883C196.005 12.805 195.97 12.714 195.97 12.61V8.931C195.97 8.57567 195.914 8.255 195.801 7.969C195.697 7.683 195.524 7.45767 195.281 7.293C195.038 7.11967 194.713 7.033 194.306 7.033C193.942 7.033 193.595 7.11967 193.266 7.293C192.945 7.45767 192.685 7.683 192.486 7.969C192.287 8.255 192.187 8.57567 192.187 8.931V12.61C192.187 12.714 192.148 12.805 192.07 12.883C191.992 12.961 191.901 13 191.797 13C191.676 13 191.58 12.961 191.511 12.883C191.442 12.805 191.407 12.714 191.407 12.61V3.77C191.407 3.666 191.442 3.575 191.511 3.497C191.589 3.419 191.684 3.38 191.797 3.38C191.91 3.38 192.001 3.419 192.07 3.497C192.148 3.575 192.187 3.666 192.187 3.77V7.982L191.888 8.437C191.905 8.16833 191.988 7.90833 192.135 7.657C192.291 7.397 192.49 7.16733 192.733 6.968C192.976 6.76 193.244 6.59967 193.539 6.487C193.834 6.36567 194.133 6.305 194.436 6.305Z" fill="#707070"/>
<line x1="210" y1="7.75" x2="320" y2="7.75" stroke="#ADADAD" stroke-width="0.5"/>
</svg>
