<svg width="284" height="35" viewBox="0 0 284 35" fill="none" xmlns="http://www.w3.org/2000/svg">
<path d="M42.6458 13.8542H70.3542V27.7083H42.6458V13.8542Z" fill="#CFD8DC"/>
<path d="M42.6458 27.7083H70.3542V30.625H42.6458V27.7083Z" fill="#B0BEC5"/>
<path d="M58.6875 17.5H67.4375V30.625H58.6875V17.5Z" fill="#455A64"/>
<path d="M45.5625 17.5H55.7708V25.5208H45.5625V17.5Z" fill="#E3F2FD"/>
<path d="M46.2917 18.2292H55.0417V24.7917H46.2917V18.2292Z" fill="#1E88E5"/>
<path d="M65.6146 24.4271C65.3958 24.4271 65.25 24.5729 65.25 24.7917V26.25C65.25 26.4688 65.3958 26.6146 65.6146 26.6146C65.8333 26.6146 65.9792 26.4688 65.9792 26.25V24.7917C65.9792 24.5729 65.8333 24.4271 65.6146 24.4271Z" fill="#90A4AE"/>
<path d="M56.5 16.0417C57.7081 16.0417 58.6875 15.0623 58.6875 13.8542C58.6875 12.646 57.7081 11.6667 56.5 11.6667C55.2919 11.6667 54.3125 12.646 54.3125 13.8542C54.3125 15.0623 55.2919 16.0417 56.5 16.0417Z" fill="#558B2F"/>
<path d="M65.25 16.0417C66.4581 16.0417 67.4375 15.0623 67.4375 13.8542C67.4375 12.646 66.4581 11.6667 65.25 11.6667C64.0419 11.6667 63.0625 12.646 63.0625 13.8542C63.0625 15.0623 64.0419 16.0417 65.25 16.0417Z" fill="#558B2F"/>
<path d="M47.75 16.0417C48.9581 16.0417 49.9375 15.0623 49.9375 13.8542C49.9375 12.646 48.9581 11.6667 47.75 11.6667C46.5419 11.6667 45.5625 12.646 45.5625 13.8542C45.5625 15.0623 46.5419 16.0417 47.75 16.0417Z" fill="#558B2F"/>
<path d="M68.1667 4.375H44.8333C44.0312 4.375 43.375 5.03125 43.375 5.83333V8.02083H69.625V5.83333C69.625 5.03125 68.9688 4.375 68.1667 4.375ZM54.3125 8.02083H58.6875V13.8542H54.3125V8.02083ZM65.9792 8.02083H62.3333L63.0625 13.8542H67.4375L65.9792 8.02083ZM47.0208 8.02083H50.6667L49.9375 13.8542H45.5625L47.0208 8.02083Z" fill="#7CB342"/>
<path d="M60.875 16.0417C62.0831 16.0417 63.0625 15.0623 63.0625 13.8542C63.0625 12.646 62.0831 11.6667 60.875 11.6667C59.6669 11.6667 58.6875 12.646 58.6875 13.8542C58.6875 15.0623 59.6669 16.0417 60.875 16.0417Z" fill="#FFA000"/>
<path d="M71.8125 13.8542C71.8125 15.0938 70.8646 16.0417 69.625 16.0417C68.3854 16.0417 67.4375 15.0938 67.4375 13.8542C67.4375 12.6146 68.3854 11.6667 69.625 11.6667L71.8125 13.8542Z" fill="#FFA000"/>
<path d="M52.125 16.0417C53.3331 16.0417 54.3125 15.0623 54.3125 13.8542C54.3125 12.646 53.3331 11.6667 52.125 11.6667C50.9169 11.6667 49.9375 12.646 49.9375 13.8542C49.9375 15.0623 50.9169 16.0417 52.125 16.0417Z" fill="#FFA000"/>
<path d="M41.1875 13.8542C41.1875 15.0938 42.1354 16.0417 43.375 16.0417C44.6146 16.0417 45.5625 15.0938 45.5625 13.8542C45.5625 12.6146 44.6146 11.6667 43.375 11.6667L41.1875 13.8542Z" fill="#FFA000"/>
<path d="M62.3333 8.02083H58.6875V13.8542H63.0625L62.3333 8.02083ZM69.625 8.02083H65.9792L67.4375 13.8542H71.8125L69.625 8.02083ZM50.6667 8.02083H54.3125V13.8542H49.9375L50.6667 8.02083ZM43.375 8.02083H47.0208L45.5625 13.8542H41.1875L43.375 8.02083Z" fill="#FFC107"/>
<path d="M82.9311 29V11.12H86.0511L92.7471 20.216H91.2591L97.8111 11.12H100.931V29H97.6431V14.84L98.9151 15.152L92.1231 24.2H91.7391L85.1151 15.152L86.1951 14.84V29H82.9311ZM113.161 29.288C111.849 29.288 110.625 29.056 109.489 28.592C108.353 28.128 107.361 27.48 106.513 26.648C105.665 25.816 105.001 24.84 104.521 23.72C104.057 22.584 103.825 21.36 103.825 20.048C103.825 18.72 104.057 17.496 104.521 16.376C104.985 15.256 105.641 14.28 106.489 13.448C107.337 12.616 108.329 11.976 109.465 11.528C110.601 11.064 111.833 10.832 113.161 10.832C114.489 10.832 115.721 11.064 116.857 11.528C117.993 11.992 118.985 12.64 119.833 13.472C120.681 14.288 121.337 15.256 121.801 16.376C122.281 17.496 122.521 18.72 122.521 20.048C122.521 21.36 122.281 22.584 121.801 23.72C121.321 24.84 120.657 25.816 119.809 26.648C118.961 27.48 117.969 28.128 116.833 28.592C115.713 29.056 114.489 29.288 113.161 29.288ZM113.161 26.312C114.041 26.312 114.849 26.16 115.585 25.856C116.321 25.536 116.961 25.096 117.505 24.536C118.065 23.976 118.489 23.312 118.777 22.544C119.081 21.776 119.233 20.944 119.233 20.048C119.233 19.152 119.081 18.328 118.777 17.576C118.489 16.808 118.065 16.144 117.505 15.584C116.961 15.008 116.321 14.568 115.585 14.264C114.849 13.96 114.041 13.808 113.161 13.808C112.297 13.808 111.497 13.96 110.761 14.264C110.025 14.568 109.377 15.008 108.817 15.584C108.273 16.144 107.849 16.808 107.545 17.576C107.241 18.328 107.089 19.152 107.089 20.048C107.089 20.944 107.241 21.776 107.545 22.544C107.849 23.312 108.273 23.976 108.817 24.536C109.377 25.096 110.025 25.536 110.761 25.856C111.497 26.16 112.297 26.312 113.161 26.312ZM131.807 29.288C130.671 29.288 129.615 29.08 128.639 28.664C127.679 28.248 126.847 27.672 126.143 26.936C125.455 26.184 124.951 25.312 124.631 24.32L127.343 23.144C127.775 24.168 128.399 24.976 129.215 25.568C130.031 26.144 130.951 26.432 131.975 26.432C132.551 26.432 133.047 26.344 133.463 26.168C133.895 25.976 134.223 25.72 134.447 25.4C134.687 25.08 134.807 24.696 134.807 24.248C134.807 23.72 134.647 23.288 134.327 22.952C134.023 22.6 133.559 22.328 132.935 22.136L129.503 21.032C128.111 20.6 127.063 19.952 126.359 19.088C125.655 18.224 125.303 17.208 125.303 16.04C125.303 15.016 125.551 14.112 126.047 13.328C126.559 12.544 127.263 11.936 128.159 11.504C129.071 11.056 130.111 10.832 131.279 10.832C132.351 10.832 133.335 11.024 134.231 11.408C135.127 11.776 135.895 12.296 136.535 12.968C137.191 13.624 137.679 14.4 137.999 15.296L135.311 16.496C134.959 15.6 134.431 14.912 133.727 14.432C133.023 13.936 132.207 13.688 131.279 13.688C130.735 13.688 130.255 13.784 129.839 13.976C129.423 14.152 129.095 14.408 128.855 14.744C128.631 15.064 128.519 15.448 128.519 15.896C128.519 16.392 128.679 16.832 128.999 17.216C129.319 17.584 129.807 17.872 130.463 18.08L133.751 19.112C135.175 19.576 136.239 20.216 136.943 21.032C137.663 21.848 138.023 22.856 138.023 24.056C138.023 25.08 137.759 25.984 137.231 26.768C136.703 27.552 135.975 28.168 135.047 28.616C134.119 29.064 133.039 29.288 131.807 29.288ZM140.962 29V11.12H144.226V18.92H151.834V11.12H155.122V29H151.834V21.8H144.226V29H140.962ZM161.732 29V14H157.1V11.12H169.58V14H165.02V29H161.732ZM171.572 29V11.12H178.22C179.436 11.12 180.508 11.344 181.436 11.792C182.38 12.224 183.116 12.864 183.644 13.712C184.172 14.544 184.436 15.56 184.436 16.76C184.436 17.992 184.14 19.04 183.548 19.904C182.972 20.768 182.188 21.408 181.196 21.824L185.3 29H181.604L177.212 21.152L179.324 22.4H174.836V29H171.572ZM174.836 19.52H178.268C178.86 19.52 179.372 19.408 179.804 19.184C180.236 18.944 180.572 18.616 180.812 18.2C181.052 17.784 181.172 17.304 181.172 16.76C181.172 16.2 181.052 15.72 180.812 15.32C180.572 14.904 180.236 14.584 179.804 14.36C179.372 14.12 178.86 14 178.268 14H174.836V19.52ZM185.975 29L192.143 11.12H196.367L202.535 29H198.983L197.711 25.16H190.799L189.503 29H185.975ZM191.735 22.28H196.775L193.799 13.376H194.711L191.735 22.28Z" fill="#1C1B1B"/>
</svg>
