<svg width="154" height="13" viewBox="0 0 154 13" fill="none" xmlns="http://www.w3.org/2000/svg">
<path d="M4.5 2.25L6.02963 4.85796L9 5.49671L6.975 7.74727L7.28115 10.75L4.5 9.53296L1.71885 10.75L2.025 7.74727L0 5.49671L2.97037 4.85796L4.5 2.25Z" fill="#FFCB45"/>
<path d="M16.5 2.25L18.0296 4.85796L21 5.49671L18.975 7.74727L19.2812 10.75L16.5 9.53296L13.7188 10.75L14.025 7.74727L12 5.49671L14.9704 4.85796L16.5 2.25Z" fill="#FFCB45"/>
<path d="M28.5 2.25L30.0296 4.85796L33 5.49671L30.975 7.74727L31.2812 10.75L28.5 9.53296L25.7188 10.75L26.025 7.74727L24 5.49671L26.9704 4.85796L28.5 2.25Z" fill="#FFCB45"/>
<path d="M40.5 2.25L42.0296 4.85796L45 5.49671L42.975 7.74727L43.2812 10.75L40.5 9.53296L37.7188 10.75L38.025 7.74727L36 5.49671L38.9704 4.85796L40.5 2.25Z" fill="#FFCB45"/>
<path d="M52.5 2.25L54.0296 4.85796L57 5.49671L54.975 7.74727L55.2812 10.75L52.5 9.53296L49.7188 10.75L50.025 7.74727L48 5.49671L50.9704 4.85796L52.5 2.25Z" fill="#F4F5FD"/>
<path d="M49.7188 10.75L52.5 9.53296V2.25L50.9704 4.85796L48 5.49671L50.025 7.74727L49.7188 10.75Z" fill="#FFCB45"/>
<path d="M62.94 11V9.32H59.39V8.34L62.89 3.55H64.06V8.34H65.09V9.32H64.06V11H62.94ZM60.26 8.77L60.07 8.34H62.94V4.49L63.26 4.59L60.26 8.77ZM66.7748 11V9.7H67.9248V11H66.7748ZM72.2216 11.12C71.8283 11.12 71.4583 11.05 71.1116 10.91C70.765 10.7633 70.465 10.56 70.2116 10.3C69.9583 10.04 69.7783 9.72667 69.6716 9.36L70.6616 8.98C70.7883 9.33333 70.995 9.60333 71.2816 9.79C71.5683 9.97667 71.8816 10.07 72.2216 10.07C72.5016 10.07 72.7483 10.0067 72.9616 9.88C73.175 9.75333 73.3416 9.58 73.4616 9.36C73.5883 9.14 73.6516 8.89 73.6516 8.61C73.6516 8.32333 73.5883 8.07333 73.4616 7.86C73.3416 7.64 73.175 7.47 72.9616 7.35C72.7483 7.22333 72.5016 7.16 72.2216 7.16C71.9416 7.16 71.685 7.22333 71.4516 7.35C71.2183 7.47667 71.0483 7.64667 70.9416 7.86L69.9916 7.65L70.5716 3.55H74.5416V4.55H71.0316L71.4816 4.06L71.0516 7.2L70.6816 6.95C70.8816 6.67 71.125 6.46667 71.4116 6.34C71.6983 6.21333 72.025 6.15 72.3916 6.15C72.8783 6.15 73.3016 6.26 73.6616 6.48C74.0283 6.69333 74.3116 6.98667 74.5116 7.36C74.7183 7.72667 74.8216 8.14333 74.8216 8.61C74.8216 9.08333 74.7083 9.51 74.4816 9.89C74.255 10.27 73.945 10.57 73.5516 10.79C73.165 11.01 72.7216 11.12 72.2216 11.12ZM79.682 12.6C79.1354 11.96 78.722 11.26 78.442 10.5C78.162 9.74 78.022 8.93 78.022 8.07C78.022 7.20333 78.162 6.39 78.442 5.63C78.722 4.87 79.1354 4.17667 79.682 3.55H80.632C80.1587 4.25 79.7987 4.98 79.552 5.74C79.312 6.49333 79.192 7.27 79.192 8.07C79.192 8.86333 79.312 9.64333 79.552 10.41C79.7987 11.17 80.1587 11.9 80.632 12.6H79.682ZM81.5879 11V10.15L83.6279 7.97C84.0279 7.54333 84.3412 7.2 84.5679 6.94C84.8012 6.67333 84.9679 6.44 85.0679 6.24C85.1746 6.04 85.2279 5.83 85.2279 5.61C85.2279 5.25 85.1179 4.97333 84.8979 4.78C84.6779 4.58 84.3946 4.48 84.0479 4.48C83.6879 4.48 83.3779 4.58333 83.1179 4.79C82.8579 4.99 82.6779 5.28333 82.5779 5.67L81.5379 5.37C81.6179 4.97667 81.7779 4.63667 82.0179 4.35C82.2579 4.05667 82.5512 3.83 82.8979 3.67C83.2512 3.51 83.6312 3.43 84.0379 3.43C84.5112 3.43 84.9246 3.52 85.2779 3.7C85.6312 3.87333 85.9046 4.11667 86.0979 4.43C86.2979 4.74333 86.3979 5.10667 86.3979 5.52C86.3979 5.79333 86.3446 6.06 86.2379 6.32C86.1379 6.57333 85.9812 6.84333 85.7679 7.13C85.5546 7.41 85.2812 7.72667 84.9479 8.08L83.1479 10H86.5379V11H81.5879ZM88.1645 12.47V11.92C88.3845 11.8667 88.5545 11.7633 88.6745 11.61C88.7945 11.4633 88.8678 11.26 88.8945 11H88.3645V9.7H89.5145V10.55C89.5145 11.0833 89.4011 11.5133 89.1745 11.84C88.9478 12.1667 88.6111 12.3767 88.1645 12.47ZM94.5857 11V9.32H91.0357V8.34L94.5357 3.55H95.7057V8.34H96.7357V9.32H95.7057V11H94.5857ZM91.9057 8.77L91.7157 8.34H94.5857V4.49L94.9057 4.59L91.9057 8.77ZM98.3705 11L100.921 7.7L101.121 7.83C101.027 7.93 100.924 8.01 100.811 8.07C100.704 8.13 100.587 8.17333 100.461 8.2C100.341 8.22667 100.211 8.24 100.071 8.24C99.6239 8.24 99.2239 8.14 98.8705 7.94C98.5172 7.73333 98.2372 7.45333 98.0305 7.1C97.8305 6.74 97.7305 6.33333 97.7305 5.88C97.7305 5.40667 97.8405 4.98667 98.0605 4.62C98.2805 4.25333 98.5805 3.96333 98.9605 3.75C99.3405 3.53667 99.7739 3.43 100.261 3.43C100.754 3.43 101.187 3.53667 101.561 3.75C101.941 3.96333 102.237 4.25667 102.451 4.63C102.671 4.99667 102.781 5.41667 102.781 5.89C102.781 6.14333 102.754 6.39333 102.701 6.64C102.647 6.88667 102.554 7.14333 102.421 7.41C102.287 7.67 102.101 7.95667 101.861 8.27L99.7805 11H98.3705ZM100.261 7.25C100.521 7.25 100.751 7.19 100.951 7.07C101.151 6.95 101.311 6.78667 101.431 6.58C101.551 6.37333 101.611 6.13667 101.611 5.87C101.611 5.59667 101.551 5.35667 101.431 5.15C101.311 4.93667 101.147 4.77333 100.941 4.66C100.741 4.54 100.514 4.48 100.261 4.48C100.007 4.48 99.7772 4.54 99.5705 4.66C99.3705 4.77333 99.2105 4.93667 99.0905 5.15C98.9705 5.35667 98.9105 5.59667 98.9105 5.87C98.9105 6.13667 98.9672 6.37333 99.0805 6.58C99.2005 6.78667 99.3639 6.95 99.5705 7.07C99.7772 7.19 100.007 7.25 100.261 7.25ZM106.406 11.12C106.013 11.12 105.643 11.05 105.296 10.91C104.95 10.7633 104.65 10.56 104.396 10.3C104.143 10.04 103.963 9.72667 103.856 9.36L104.846 8.98C104.973 9.33333 105.18 9.60333 105.466 9.79C105.753 9.97667 106.066 10.07 106.406 10.07C106.686 10.07 106.933 10.0067 107.146 9.88C107.36 9.75333 107.526 9.58 107.646 9.36C107.773 9.14 107.836 8.89 107.836 8.61C107.836 8.32333 107.773 8.07333 107.646 7.86C107.526 7.64 107.36 7.47 107.146 7.35C106.933 7.22333 106.686 7.16 106.406 7.16C106.126 7.16 105.87 7.22333 105.636 7.35C105.403 7.47667 105.233 7.64667 105.126 7.86L104.176 7.65L104.756 3.55H108.726V4.55H105.216L105.666 4.06L105.236 7.2L104.866 6.95C105.066 6.67 105.31 6.46667 105.596 6.34C105.883 6.21333 106.21 6.15 106.576 6.15C107.063 6.15 107.486 6.26 107.846 6.48C108.213 6.69333 108.496 6.98667 108.696 7.36C108.903 7.72667 109.006 8.14333 109.006 8.61C109.006 9.08333 108.893 9.51 108.666 9.89C108.44 10.27 108.13 10.57 107.736 10.79C107.35 11.01 106.906 11.12 106.406 11.12ZM112.277 11V5.59H113.357V6.68L113.257 6.52C113.377 6.16667 113.57 5.91333 113.837 5.76C114.103 5.6 114.423 5.52 114.797 5.52H115.127V6.55H114.657C114.283 6.55 113.98 6.66667 113.747 6.9C113.52 7.12667 113.407 7.45333 113.407 7.88V11H112.277ZM118.59 11.12C118.05 11.12 117.57 10.9967 117.15 10.75C116.737 10.4967 116.413 10.1567 116.18 9.73C115.947 9.29667 115.83 8.81333 115.83 8.28C115.83 7.73333 115.947 7.25 116.18 6.83C116.42 6.41 116.74 6.08 117.14 5.84C117.54 5.59333 117.993 5.47 118.5 5.47C118.907 5.47 119.27 5.54 119.59 5.68C119.91 5.82 120.18 6.01333 120.4 6.26C120.62 6.5 120.787 6.77667 120.9 7.09C121.02 7.40333 121.08 7.73667 121.08 8.09C121.08 8.17667 121.077 8.26667 121.07 8.36C121.063 8.45333 121.05 8.54 121.03 8.62H116.72V7.72H120.39L119.85 8.13C119.917 7.80333 119.893 7.51333 119.78 7.26C119.673 7 119.507 6.79667 119.28 6.65C119.06 6.49667 118.8 6.42 118.5 6.42C118.2 6.42 117.933 6.49667 117.7 6.65C117.467 6.79667 117.287 7.01 117.16 7.29C117.033 7.56333 116.983 7.89667 117.01 8.29C116.977 8.65667 117.027 8.97667 117.16 9.25C117.3 9.52333 117.493 9.73667 117.74 9.89C117.993 10.0433 118.28 10.12 118.6 10.12C118.927 10.12 119.203 10.0467 119.43 9.9C119.663 9.75333 119.847 9.56333 119.98 9.33L120.9 9.78C120.793 10.0333 120.627 10.2633 120.4 10.47C120.18 10.67 119.913 10.83 119.6 10.95C119.293 11.0633 118.957 11.12 118.59 11.12ZM123.805 11L121.685 5.59H122.915L124.545 10H124.095L125.725 5.59H126.965L124.835 11H123.805ZM127.883 11V5.59H129.013V11H127.883ZM127.883 4.85V3.55H129.013V4.85H127.883ZM133.024 11.12C132.484 11.12 132.004 10.9967 131.584 10.75C131.171 10.4967 130.848 10.1567 130.614 9.73C130.381 9.29667 130.264 8.81333 130.264 8.28C130.264 7.73333 130.381 7.25 130.614 6.83C130.854 6.41 131.174 6.08 131.574 5.84C131.974 5.59333 132.428 5.47 132.934 5.47C133.341 5.47 133.704 5.54 134.024 5.68C134.344 5.82 134.614 6.01333 134.834 6.26C135.054 6.5 135.221 6.77667 135.334 7.09C135.454 7.40333 135.514 7.73667 135.514 8.09C135.514 8.17667 135.511 8.26667 135.504 8.36C135.498 8.45333 135.484 8.54 135.464 8.62H131.154V7.72H134.824L134.284 8.13C134.351 7.80333 134.328 7.51333 134.214 7.26C134.108 7 133.941 6.79667 133.714 6.65C133.494 6.49667 133.234 6.42 132.934 6.42C132.634 6.42 132.368 6.49667 132.134 6.65C131.901 6.79667 131.721 7.01 131.594 7.29C131.468 7.56333 131.418 7.89667 131.444 8.29C131.411 8.65667 131.461 8.97667 131.594 9.25C131.734 9.52333 131.928 9.73667 132.174 9.89C132.428 10.0433 132.714 10.12 133.034 10.12C133.361 10.12 133.638 10.0467 133.864 9.9C134.098 9.75333 134.281 9.56333 134.414 9.33L135.334 9.78C135.228 10.0333 135.061 10.2633 134.834 10.47C134.614 10.67 134.348 10.83 134.034 10.95C133.728 11.0633 133.391 11.12 133.024 11.12ZM138.077 11L136.217 5.59H137.417L138.837 9.9H138.417L139.867 5.59H140.897L142.337 9.9H141.917L143.347 5.59H144.547L142.677 11H141.657L140.197 6.59H140.567L139.107 11H138.077ZM147.472 11.12C146.918 11.12 146.432 10.9833 146.012 10.71C145.598 10.4367 145.308 10.07 145.142 9.61L146.012 9.2C146.158 9.50667 146.358 9.75 146.612 9.93C146.872 10.11 147.158 10.2 147.472 10.2C147.738 10.2 147.955 10.14 148.122 10.02C148.288 9.9 148.372 9.73667 148.372 9.53C148.372 9.39667 148.335 9.29 148.262 9.21C148.188 9.12333 148.095 9.05333 147.982 9C147.875 8.94667 147.765 8.90667 147.652 8.88L146.802 8.64C146.335 8.50667 145.985 8.30667 145.752 8.04C145.525 7.76667 145.412 7.45 145.412 7.09C145.412 6.76333 145.495 6.48 145.662 6.24C145.828 5.99333 146.058 5.80333 146.352 5.67C146.645 5.53667 146.975 5.47 147.342 5.47C147.835 5.47 148.275 5.59333 148.662 5.84C149.048 6.08 149.322 6.41667 149.482 6.85L148.612 7.26C148.505 7 148.335 6.79333 148.102 6.64C147.875 6.48667 147.618 6.41 147.332 6.41C147.085 6.41 146.888 6.47 146.742 6.59C146.595 6.70333 146.522 6.85333 146.522 7.04C146.522 7.16667 146.555 7.27333 146.622 7.36C146.688 7.44 146.775 7.50667 146.882 7.56C146.988 7.60667 147.098 7.64667 147.212 7.68L148.092 7.94C148.538 8.06667 148.882 8.26667 149.122 8.54C149.362 8.80667 149.482 9.12667 149.482 9.5C149.482 9.82 149.395 10.1033 149.222 10.35C149.055 10.59 148.822 10.78 148.522 10.92C148.222 11.0533 147.872 11.12 147.472 11.12ZM150.389 12.6C150.869 11.9 151.229 11.17 151.469 10.41C151.709 9.64333 151.829 8.86333 151.829 8.07C151.829 7.27 151.709 6.49333 151.469 5.74C151.229 4.98 150.869 4.25 150.389 3.55H151.339C151.892 4.17667 152.309 4.87 152.589 5.63C152.869 6.39 153.009 7.20333 153.009 8.07C153.009 8.93 152.869 9.74 152.589 10.5C152.309 11.26 151.892 11.96 151.339 12.6H150.389Z" fill="#1C1B1B"/>
</svg>
