<svg width="21" height="16" viewBox="0 0 21 16" fill="none" xmlns="http://www.w3.org/2000/svg">
<path d="M20.3438 4.40625H13.7812C13.6072 4.40625 13.4403 4.4721 13.3172 4.58931C13.1941 4.70652 13.125 4.86549 13.125 5.03125C13.125 5.19701 13.1941 5.35598 13.3172 5.47319C13.4403 5.5904 13.6072 5.65625 13.7812 5.65625H19.6875V14.7188H10.3183L12.3822 11.2788C12.4351 11.1829 12.4647 11.077 12.4688 10.9688V0.65625C12.4687 0.490492 12.3996 0.331526 12.2765 0.214317C12.1535 0.097109 11.9865 0.0312583 11.8125 0.03125H0.65625C0.482204 0.0312583 0.31529 0.097109 0.192221 0.214317C0.0691519 0.331526 8.70163e-06 0.490492 0 0.65625L0 10.9688C8.70163e-06 11.1345 0.0691519 11.2935 0.192221 11.4107C0.31529 11.5279 0.482204 11.5937 0.65625 11.5938H8.53125V15.3438C8.53398 15.5088 8.60407 15.6663 8.72668 15.783C8.84929 15.8997 9.01478 15.9663 9.18808 15.9688H20.3438C20.5178 15.9687 20.6847 15.9029 20.8078 15.7857C20.9308 15.6685 21 15.5095 21 15.3438V5.03125C21 4.86549 20.9308 4.70653 20.8078 4.58932C20.6847 4.47211 20.5178 4.40626 20.3438 4.40625ZM1.3125 1.28125H11.1562V10.3438H1.3125V1.28125ZM10.6817 11.5938L9.84375 12.9904V11.5938H10.6817Z" fill="black"/>
</svg>
