<svg width="25" height="25" viewBox="0 0 25 25" fill="none" xmlns="http://www.w3.org/2000/svg">
<path d="M12.25 22.1501C11.94 22.1501 11.64 22.1101 11.39 22.0201C7.57 20.7101 1.5 16.0601 1.5 9.1901C1.5 5.6901 4.33 2.8501 7.81 2.8501C9.5 2.8501 11.08 3.5101 12.25 4.6901C13.42 3.5101 15 2.8501 16.69 2.8501C20.17 2.8501 23 5.7001 23 9.1901C23 16.0701 16.93 20.7101 13.11 22.0201C12.86 22.1101 12.56 22.1501 12.25 22.1501ZM7.81 4.3501C5.16 4.3501 3 6.5201 3 9.1901C3 16.0201 9.57 19.8201 11.88 20.6101C12.06 20.6701 12.45 20.6701 12.63 20.6101C14.93 19.8201 21.51 16.0301 21.51 9.1901C21.51 6.5201 19.35 4.3501 16.7 4.3501C15.18 4.3501 13.77 5.0601 12.86 6.2901C12.58 6.6701 11.94 6.6701 11.66 6.2901C10.73 5.0501 9.33 4.3501 7.81 4.3501Z" fill="#6F7384"/>
</svg>
